<?xml version="1.0" encoding="UTF-8"?>
<svg version="1.1" xmlns="http://www.w3.org/2000/svg" width="480" height="520">
<path d="M0 0 C-0.486211 2.54183723 -1.23409816 4.46365702 -2.41015625 6.79296875 C-8.84759916 20.01788102 -9.72721795 36.76717486 -5.375 50.875 C-4.29030256 53.53620906 -4.29030256 53.53620906 -3 56 C-2.5875 56.84175781 -2.175 57.68351562 -1.75 58.55078125 C0.43132744 62.73372449 2.85497767 66.76414029 5.29296875 70.80078125 C16.24290707 88.99396162 26.21073689 107.31242244 27 129 C27.03996094 129.7321875 27.07992187 130.464375 27.12109375 131.21875 C27.56072565 145.49385638 24.31774609 158.8692068 14.5 169.4375 C12.68575654 171.31034964 10.8530745 173.16556275 9 175 C8.1234375 175.93972656 7.246875 176.87945312 6.34375 177.84765625 C4 180 4 180 1 180 C0.67 180.99 0.34 181.98 0 183 C-1.82141027 184.67795791 -3.74754379 186.17186913 -5.69921875 187.6953125 C-13.51474449 195.52410738 -14.76855902 201.77342806 -14.83224487 212.52186584 C-14.82369741 214.28671585 -14.8144966 216.0515628 -14.8046875 217.81640625 C-14.81594999 219.64202113 -14.82983601 221.46762154 -14.84622192 223.29319763 C-14.88213361 228.07233291 -14.88264952 232.85082682 -14.87554932 237.63006592 C-14.87463384 242.51716454 -14.90753134 247.40402608 -14.9375 252.29101562 C-14.99124342 261.86074432 -15.00755842 271.43013697 -15 281 C-16.42573 281.85607616 -17.8596184 282.69857636 -19.296875 283.53515625 C-20.09448242 284.00574463 -20.89208984 284.47633301 -21.71386719 284.96118164 C-24 286 -24 286 -27.25 285.4375 C-28.1575 284.963125 -29.065 284.48875 -30 284 C-30.928125 283.67 -31.85625 283.34 -32.8125 283 C-35 282 -35 282 -36 280 C-36.08961478 278.60916649 -36.11757964 277.21410046 -36.11352539 275.82038879 C-36.1134549 274.94426941 -36.1133844 274.06815002 -36.11331177 273.16548157 C-36.10814545 272.20184189 -36.10297913 271.23820221 -36.09765625 270.24536133 C-36.09619598 269.23218842 -36.09473572 268.2190155 -36.0932312 267.17514038 C-36.08941815 264.9690636 -36.08329424 262.76298991 -36.07516479 260.55692482 C-36.06243473 257.06412266 -36.05589364 253.57135837 -36.05102539 250.07853699 C-36.03763023 241.39836688 -36.013486 232.71823245 -35.98962402 224.03808594 C-35.96988279 216.71385081 -35.95424235 209.38962922 -35.94406128 202.06537437 C-35.93758493 198.62712055 -35.92507334 195.18892221 -35.91235352 191.75068665 C-35.9087194 189.6343287 -35.90536786 187.51797024 -35.90234375 185.40161133 C-35.89717743 184.4480928 -35.89201111 183.49457428 -35.88668823 182.51216125 C-35.4714797 173.80988505 -35.4714797 173.80988505 -38.55859375 166.14453125 C-39.17863281 165.70496094 -39.79867187 165.26539063 -40.4375 164.8125 C-43.24542593 162.77836577 -44.79373537 161.29516191 -46 158 C-46.90096437 150.57228212 -46.42409826 145.0831351 -42 139 C-41.34 139 -40.68 139 -40 139 C-40 138.34 -40 137.68 -40 137 C-35.22578062 134.75903988 -31.2922317 133.65438159 -26 133 C-26.64066406 132.18917969 -27.28132813 131.37835938 -27.94140625 130.54296875 C-43.91572869 110.17594013 -57.48669813 87.85633982 -55 61 C-52.88031989 49.74062391 -49.31453762 37.08011567 -42 28 C-41.34 28 -40.68 28 -40 28 C-40 27.01 -40 26.02 -40 25 C-37.21462471 21.82776704 -34.72826984 19.86413492 -31 18 C-30.67 17.01 -30.34 16.02 -30 15 C-26.55555556 12 -26.55555556 12 -24 12 C-23.67 11.01 -23.34 10.02 -23 9 C-20.58701916 7.34089375 -18.21322751 5.8398747 -15.6875 4.375 C-15.01009766 3.96765625 -14.33269531 3.5603125 -13.63476562 3.140625 C-5.38424495 -1.73065016 -5.38424495 -1.73065016 0 0 Z M-36 149 C-36.53337026 152.26689283 -36.65322976 154.05281685 -34.75 156.8125 C-32.71176064 158.19559099 -31.46346392 158.78263554 -29 159 C-26.29534258 158.13545562 -26.29534258 158.13545562 -24 157 C-24 156.34 -24 155.68 -24 155 C-23.34 155 -22.68 155 -22 155 C-21.67476074 151.42236811 -21.57043413 149.60457419 -23.6875 146.625 C-25.87786062 144.85622153 -25.87786062 144.85622153 -28.4375 144.5 C-31.95385308 145.18611767 -33.57904909 146.37153902 -36 149 Z " fill="#DD291F" transform="translate(264,9)"/>
<path d="M0 0 C3.83833256 1.55040832 7.66964415 3.11749949 11.5 4.6875 C12.57765625 5.12255859 13.6553125 5.55761719 14.765625 6.00585938 C17.87050293 7.28378169 20.93874037 8.62117244 24 10 C25.24644287 10.53065063 25.24644287 10.53065063 26.51806641 11.07202148 C29.69623718 12.66609615 31.57967065 13.78117875 32.76660156 17.22290039 C33.1838646 20.06557156 33.31566194 22.81502992 33.375 25.6875 C33.4878624 27.85939681 33.6011584 30.03127111 33.71484375 32.203125 C33.7597998 33.32525391 33.80475586 34.44738281 33.85107422 35.60351562 C34.09021674 41.05753331 34.51332612 46.49523802 34.9375 51.9375 C35.01863037 53.01354492 35.09976074 54.08958984 35.18334961 55.19824219 C37.00748694 78.67196334 40.50759897 101.90077484 45 125 C48.45679271 107.4463576 51.08710434 89.8726189 52.71875 72.05517578 C53.04474578 68.51393345 53.38154699 64.97378628 53.71875 61.43359375 C53.81297493 60.43113113 53.81297493 60.43113113 53.90910339 59.40841675 C54.23456142 55.94829491 54.5693343 52.48957672 54.9230957 49.03222656 C55.55672997 42.71661442 56.06955956 36.46935298 56.07421875 30.11328125 C56.21844115 16.04504171 56.21844115 16.04504171 59.42626953 12.36279297 C63.18146298 9.52172683 67.33667558 8.05180444 71.80761719 6.69873047 C74.65535257 5.79113374 77.3146998 4.58192381 80.03027344 3.34204102 C87.35194984 0 87.35194984 0 90 0 C89.83566337 6.64816378 88.63747559 12.85601501 86.875 19.25 C84.55844342 27.65713429 82.57646598 36.11186822 80.6875 44.625 C78.24970401 55.59508196 75.68236837 66.52471897 73 77.4375 C70.28096719 88.50993117 67.72081932 99.60584862 65.3125 110.75 C63.32181975 119.94954324 61.32874337 129.1465891 59.1875 138.3125 C58.99260986 139.16618164 58.79771973 140.01986328 58.59692383 140.89941406 C57.76538469 144.41027564 57.02092345 146.96861483 55 150 C50.00233904 152.89519669 45.61915821 153.45681879 40 152 C36.92578125 150.87109375 36.92578125 150.87109375 34 149 C32.64453125 145.91796875 32.64453125 145.91796875 31.8125 142.1875 C31.53019531 140.98480469 31.24789062 139.78210938 30.95703125 138.54296875 C30.63456963 137.02937698 30.31605935 135.51494159 30 134 C27.87800157 123.94729231 25.61581336 113.93496012 23.25 103.9375 C22.89864939 102.44833118 22.54733163 100.9591546 22.19604492 99.4699707 C19.36433562 87.4804753 16.48006699 75.5039378 13.578125 63.53125 C12.61999828 59.5752614 11.66916089 55.61781848 10.734375 51.65625 C10.53884033 50.82770508 10.34330566 49.99916016 10.1418457 49.14550781 C9.75934398 47.522656 9.37765439 45.89961253 8.99682617 44.27636719 C7.687237 38.74543698 6.29728007 33.23814411 4.87890625 27.734375 C4.31525566 25.53295127 3.75218445 23.33137992 3.18917847 21.12979126 C2.81535926 19.67720023 2.43806088 18.22549977 2.05715942 16.77474976 C1.52191862 14.73600768 0.99824443 12.69459053 0.4765625 10.65234375 C0.16799316 9.46632568 -0.14057617 8.28030762 -0.45849609 7.05834961 C-0.9652658 4.19617463 -1.00233311 2.68101382 0 0 Z " fill="#7D4E33" transform="translate(194,350)"/>
<path d="M0 0 C8.1428282 0.9395571 14.21562132 10.57180254 18.9765625 16.43359375 C28.13228475 28.32896262 32.98186679 41.7040798 37 56 C37.17958252 56.59989746 37.35916504 57.19979492 37.54418945 57.81787109 C38.64026948 63.06520014 38.27252394 68.5993636 38.3125 73.9375 C38.35600586 75.82178711 38.35600586 75.82178711 38.40039062 77.74414062 C38.50122245 92.76808241 33.54142274 109.73732202 23 121 C20.78702034 122.87068424 18.52814102 124.62167922 16.18359375 126.32421875 C13.93234102 127.97487989 13.93234102 127.97487989 11.9140625 130.09765625 C8.74586253 133.24645908 5.47947711 135 1 135 C0.56476235 126.81108421 1.72931219 119.8497986 4 112 C6.77322709 102.26115558 8.5257543 94.14039781 7 84 C6.34 84 5.68 84 5 84 C4.62488281 84.90685547 4.62488281 84.90685547 4.2421875 85.83203125 C2.8136425 88.32524658 1.53725639 89.17187476 -0.875 90.6875 C-4.97171971 93.58842044 -6.31963659 96.33384061 -8.06640625 100.9453125 C-9.70810695 104.55842786 -12.56011225 106.28005613 -16 108 C-16.33 118.89 -16.66 129.78 -17 141 C-32.4 148 -32.4 148 -38 148 C-37.99777939 147.39500671 -37.99555878 146.79001343 -37.99327087 146.16668701 C-37.9711557 139.87268667 -37.95606729 133.57869735 -37.94506836 127.28466797 C-37.94003811 124.93537955 -37.9332132 122.58609427 -37.92456055 120.23681641 C-37.91243782 116.86099474 -37.9067586 113.48521445 -37.90234375 110.109375 C-37.89718246 109.05820496 -37.89202118 108.00703491 -37.88670349 106.92401123 C-37.88662796 105.94329651 -37.88655243 104.96258179 -37.88647461 103.95214844 C-37.884254 103.09055115 -37.88203339 102.22895386 -37.87974548 101.34124756 C-37.9958732 99.08034514 -38.42618419 97.18079966 -39 95 C-39.37486013 89.18966797 -39.02349995 86.13862382 -36 81 C-33.765625 78.62109375 -33.765625 78.62109375 -31.25 76.4375 C-30.36570312 75.66792969 -29.48140625 74.89835937 -28.5703125 74.10546875 C-26.46826359 72.38357762 -24.3631726 70.78571583 -22.125 69.25 C-19.06569406 67.04729973 -17.24394199 64.99192265 -15 62 C-14.21625 61.278125 -13.4325 60.55625 -12.625 59.8125 C-2.71875361 49.19866458 1.44431437 35.58995123 1.27734375 21.3046875 C0.84369936 16.13760079 -0.32333694 11.18669445 -1.5390625 6.15234375 C-2 3 -2 3 0 0 Z M-28 87 C-30.25641931 89.73832802 -30.25641931 89.73832802 -29.875 92.4375 C-28.79769128 95.59247555 -27.66380423 97.00214683 -25 99 C-22.5 99.75 -22.5 99.75 -20 99 C-17.47616674 96.9703869 -17.47616674 96.9703869 -16 94 C-15.82889551 90.8596006 -15.82889551 90.8596006 -17 88 C-20.69513326 84.30486674 -23.63901957 84.32714103 -28 87 Z " fill="#BD1915" transform="translate(307,133)"/>
<path d="M0 0 C2.5 0.25 2.5 0.25 4.5 2.25 C4.17889311 5.78217579 3.62183498 8.88449506 2.5 12.25 C2.24416473 15.59950383 2.2685924 18.95424791 2.25 22.3125 C2.229375 23.21677734 2.20875 24.12105469 2.1875 25.05273438 C2.13642486 33.98449925 4.14122613 41.5269471 8.6875 49.25 C11.5 54.06751825 11.5 54.06751825 11.5 56.25 C12.16 56.25 12.82 56.25 13.5 56.25 C16.5 59.71153846 16.5 59.71153846 16.5 62.25 C17.056875 62.4975 17.61375 62.745 18.1875 63 C20.90371009 64.46822167 23.11608641 66.29396834 25.5 68.25 C28.19596697 70.04731132 29.84350099 70.71926734 32.875 71.5625 C37.17083305 72.9315785 39.55226404 74.76631205 42.5 78.25 C43.16 78.91 43.82 79.57 44.5 80.25 C45.52312702 83.25609096 45.62166645 86.04341588 45.61352539 89.20214844 C45.61341209 90.67322052 45.61341209 90.67322052 45.61329651 92.17401123 C45.60813522 93.22518127 45.60297394 94.27635132 45.59765625 95.359375 C45.5962413 96.44132141 45.59482635 97.52326782 45.59336853 98.63800049 C45.58777318 102.0920285 45.5752215 105.54599159 45.5625 109 C45.5574844 111.34244698 45.5529216 113.68489498 45.54882812 116.02734375 C45.53780528 121.7682513 45.52107174 127.50912101 45.5 133.25 C40.8171994 132.5279841 36.64783547 131.37022746 32.1875 129.75 C30.95386719 129.3065625 29.72023437 128.863125 28.44921875 128.40625 C25.5 127.25 25.5 127.25 24.5 126.25 C24.41286169 124.54227642 24.39299993 122.83101351 24.40234375 121.12109375 C24.40556641 120.08662109 24.40878906 119.05214844 24.41210938 117.98632812 C24.42467773 116.3534082 24.42467773 116.3534082 24.4375 114.6875 C24.44201172 113.59501953 24.44652344 112.50253906 24.45117188 111.37695312 C24.46300174 108.66791505 24.47948457 105.95898401 24.5 103.25 C23.34564453 103.07597656 23.34564453 103.07597656 22.16796875 102.8984375 C17.46911381 101.75640248 15.08822105 98.13233157 12.5 94.25 C12.29375 93.156875 12.0875 92.06375 11.875 90.9375 C10.00776939 85.92992701 6.90219747 84.04488351 2.5 81.25 C1.19454798 82.32469543 1.19454798 82.32469543 1.4453125 84.8828125 C1.80054422 91.78666382 2.68981116 97.54023265 5.0625 104 C7.23848628 109.98396226 8.17055526 114.91697811 7.5 121.25 C-1.59270266 118.62916217 -9.29625289 112.29209132 -15.5 105.25 C-15.5 104.59 -15.5 103.93 -15.5 103.25 C-16.16 103.25 -16.82 103.25 -17.5 103.25 C-28.53495495 84.11972973 -33.29537013 63.83423801 -28 41.875 C-25.58750187 33.47881476 -21.72931465 25.86624014 -17.5 18.25 C-16.96503906 17.27417969 -16.43007812 16.29835937 -15.87890625 15.29296875 C-15.42386719 14.61878906 -14.96882812 13.94460937 -14.5 13.25 C-13.84 13.25 -13.18 13.25 -12.5 13.25 C-12.066875 12.3528125 -12.066875 12.3528125 -11.625 11.4375 C-10.5 9.25 -10.5 9.25 -8.5 6.25 C-7.84 6.25 -7.18 6.25 -6.5 6.25 C-6.066875 5.321875 -6.066875 5.321875 -5.625 4.375 C-4.09289557 1.48102496 -3.33783515 0.33378352 0 0 Z M24.75 82.8125 C22.10690718 85.13357281 22.10690718 85.13357281 22.4375 88.8125 C23.23591905 92.22187948 23.23591905 92.22187948 25.25 94.25 C28.16694866 95.54642163 29.51792673 95.32048784 32.5 94.25 C34.41666667 93.16666667 34.41666667 93.16666667 35.5 91.25 C36.16680368 88.29279372 36.16680368 88.29279372 35.5 85.25 C33.29511741 82.78583866 33.29511741 82.78583866 30.5 81.25 C27.40757907 81.0029953 27.40757907 81.0029953 24.75 82.8125 Z " fill="#BB1513" transform="translate(162.5,147.75)"/>
<path d="M0 0 C5.77966388 1.11864462 10.88406314 2.67428639 16.3046875 4.9453125 C19.13015523 6.05093031 21.9606008 6.90773118 24.875 7.75 C33.36917134 10.29021909 41.49445227 13.72816886 49.69677734 17.07324219 C52.71630632 18.28822332 55.76242392 19.42671335 58.8125 20.5625 C62.27394559 21.86557978 65.62696703 23.27456391 68.94921875 24.89453125 C69.62299561 25.22187256 70.29677246 25.54921387 70.9909668 25.88647461 C72.29712576 26.52915752 73.59724821 27.18430992 74.88989258 27.85375977 C77.66122937 29.22343172 79.59542976 30.02856476 82.7109375 29.80859375 C84.81193931 29.06643099 86.67751197 28.26419492 88.625 27.1875 C92.72900481 25.04661613 96.94523607 23.5265618 101.3046875 21.98828125 C103.61641761 21.14064688 105.82810731 20.2170731 108.0625 19.1875 C121.27408101 13.19075401 135.06046811 8.49526935 148.77050781 3.79101562 C150.98001132 3.00709191 153.15520183 2.15708205 155.3359375 1.296875 C159 0 159 0 163 0 C163.39614741 6.44639874 161.94951289 12.05658284 160.25 18.25 C159.87101562 19.73886719 159.87101562 19.73886719 159.484375 21.2578125 C159.2265625 22.20914062 158.96875 23.16046875 158.703125 24.140625 C158.47270508 25.00204102 158.24228516 25.86345703 158.00488281 26.75097656 C156.78103628 29.49006166 155.55209355 30.46690996 153 32 C150.49829986 32.81190498 148.03994838 33.52531171 145.5 34.1875 C136.10970415 36.78612399 127.22514014 40.38036822 118.22998047 44.09375 C115.28047854 45.29240898 112.2987124 46.39648081 109.3125 47.5 C102.61756656 50.04424838 96.199752 53.12911481 89.75 56.23046875 C89.09676758 56.53484863 88.44353516 56.83922852 87.77050781 57.15283203 C86.29291904 57.85984155 84.85161679 58.64205061 83.421875 59.44140625 C79.73199349 60.29245957 77.36582697 58.54344942 74.25 56.75 C63.25130273 50.83911765 51.6307463 46.49387568 40 42 C39.18337891 41.68224609 38.36675781 41.36449219 37.52539062 41.03710938 C29.6688031 37.98674279 21.79801464 35.21543808 13.671875 32.95703125 C10.86755891 31.95256131 9.11343531 31.09915535 7 29 C6.09375 26.5390625 6.09375 26.5390625 5.5 23.625 C4.23830888 17.89510994 2.59352281 12.38694613 0.76953125 6.8125 C0 4 0 4 0 0 Z " fill="#A97A5C" transform="translate(157,287)"/>
<path d="M0 0 C4.29 0 8.58 0 13 0 C10.125 9.75 10.125 9.75 9 12 C8.06820077 24.27404506 7.30312528 37.80208063 13 49 C13.4125 49.84175781 13.825 50.68351562 14.25 51.55078125 C16.43132744 55.73372449 18.85497767 59.76414029 21.29296875 63.80078125 C25.87080941 71.40861788 30.19505584 79.06533222 34.0625 87.0625 C34.44446533 87.83529297 34.82643066 88.60808594 35.2199707 89.40429688 C35.57148193 90.14873047 35.92299316 90.89316406 36.28515625 91.66015625 C36.59332275 92.30605713 36.90148926 92.95195801 37.21899414 93.61743164 C38 96 38 96 39 104 C31.41 104 23.82 104 16 104 C16 101.36 16 98.72 16 96 C13.36 96 10.72 96 8 96 C8 93.36 8 90.72 8 88 C5.36 88 2.72 88 0 88 C0 82.72 0 77.44 0 72 C-2.64 72 -5.28 72 -8 72 C-8 74.64 -8 77.28 -8 80 C-15.92 80 -23.84 80 -32 80 C-32 66.8 -32 53.6 -32 40 C-29.36 40 -26.72 40 -24 40 C-24 34.72 -24 29.44 -24 24 C-21.36 24 -18.72 24 -16 24 C-16 21.36 -16 18.72 -16 16 C-13.36 16 -10.72 16 -8 16 C-8 13.36 -8 10.72 -8 8 C-5.36 8 -2.72 8 0 8 C0 5.36 0 2.72 0 0 Z " fill="#FE5147" transform="translate(248,16)"/>
<path d="M0 0 C2.64 0 5.28 0 8 0 C8 2.64 8 5.28 8 8 C13.28 8 18.56 8 24 8 C24 15.92 24 23.84 24 32 C21.36 32 18.72 32 16 32 C16 63.68 16 95.36 16 128 C10.72 128 5.44 128 0 128 C0 96.32 0 64.64 0 32 C-2.31 32 -4.62 32 -7 32 C-8 31 -8 31 -8.11352539 28.77514648 C-8.10828857 27.81680908 -8.10305176 26.85847168 -8.09765625 25.87109375 C-8.09443359 24.83662109 -8.09121094 23.80214844 -8.08789062 22.73632812 C-8.07951172 21.64771484 -8.07113281 20.55910156 -8.0625 19.4375 C-8.05798828 18.34501953 -8.05347656 17.25253906 -8.04882812 16.12695312 C-8.03699826 13.41791505 -8.02051543 10.70898401 -8 8 C-5.36 8 -2.72 8 0 8 C0 5.36 0 2.72 0 0 Z M-4 14 C-4.53337026 17.26689283 -4.65322976 19.05281685 -2.75 21.8125 C-0.71176064 23.19559099 0.53653608 23.78263554 3 24 C5.70465742 23.13545562 5.70465742 23.13545562 8 22 C8 21.34 8 20.68 8 20 C8.66 20 9.32 20 10 20 C10.32523926 16.42236811 10.42956587 14.60457419 8.3125 11.625 C6.12213938 9.85622153 6.12213938 9.85622153 3.5625 9.5 C0.04614692 10.18611767 -1.57904909 11.37153902 -4 14 Z " fill="#B81612" transform="translate(232,144)"/>
<path d="M0 0 C7.26 0 14.52 0 22 0 C22 2.64 22 5.28 22 8 C24.64 8 27.28 8 30 8 C30 15.92 30 23.84 30 32 C32.64 32 35.28 32 38 32 C38.10812003 34.75105422 38.18734945 37.49785087 38.25 40.25 C38.30027344 41.41595703 38.30027344 41.41595703 38.3515625 42.60546875 C38.45015051 48.37286724 38.45015051 48.37286724 36.171875 51.546875 C34 53 34 53 31 53 C30.67 53.99 30.34 54.98 30 56 C28.17858973 57.67795791 26.25245621 59.17186913 24.30078125 60.6953125 C16.48525551 68.52410738 15.23144098 74.77342806 15.16775513 85.52186584 C15.17630259 87.28671585 15.1855034 89.0515628 15.1953125 90.81640625 C15.18405001 92.64202113 15.17016399 94.46762154 15.15377808 96.29319763 C15.11786639 101.07233291 15.11735048 105.85082682 15.12445068 110.63006592 C15.12536616 115.51716454 15.09246866 120.40402608 15.0625 125.29101562 C15.00875658 134.86074432 14.99244158 144.43013697 15 154 C13.57427 154.85607616 12.1403816 155.69857636 10.703125 156.53515625 C9.90551758 157.00574463 9.10791016 157.47633301 8.28613281 157.96118164 C6 159 6 159 2.75 158.4375 C1.8425 157.963125 0.935 157.48875 0 157 C-0.928125 156.67 -1.85625 156.34 -2.8125 156 C-5 155 -5 155 -6 153 C-6.08960416 151.61141268 -6.11758001 150.21858736 -6.11352539 148.82711792 C-6.1134549 147.9524437 -6.1133844 147.07776947 -6.11331177 146.17658997 C-6.10814545 145.21452133 -6.10297913 144.2524527 -6.09765625 143.26123047 C-6.09619598 142.24966385 -6.09473572 141.23809723 -6.0932312 140.19587708 C-6.08941802 137.99307648 -6.08329396 135.79027898 -6.07516479 133.58749008 C-6.06243222 130.09861388 -6.05589287 126.60977559 -6.05102539 123.12088013 C-6.03763141 114.4494838 -6.01350088 105.77812316 -5.98962402 97.10675049 C-5.96987074 89.79125292 -5.95423454 82.47576898 -5.94406128 75.16025162 C-5.93759133 71.7281374 -5.92507917 68.29607905 -5.91235352 64.86398315 C-5.90871878 62.7477015 -5.90536732 60.63141933 -5.90234375 58.51513672 C-5.89717743 57.56521347 -5.89201111 56.61529022 -5.88668823 55.63658142 C-5.88626859 50.3292025 -6.22403468 45.2519101 -7 40 C-5.35 40 -3.7 40 -2 40 C-2 71.68 -2 103.36 -2 136 C3.28 136 8.56 136 14 136 C14 104.32 14 72.64 14 40 C16.64 40 19.28 40 22 40 C22 32.08 22 24.16 22 16 C16.72 16 11.44 16 6 16 C6 13.36 6 10.72 6 8 C3.36 8 0.72 8 -2 8 C-2 10.64 -2 13.28 -2 16 C-4.64 16 -7.28 16 -10 16 C-10 23.26 -10 30.52 -10 38 C-16.15681234 31.84318766 -16.15681234 31.84318766 -16.3125 25.3125 C-16.29198916 19.63099799 -15.31518485 16.55837917 -12 12 C-11.34 12 -10.68 12 -10 12 C-10 11.34 -10 10.68 -10 10 C-5.25645564 7.77343836 -1.27749285 6.53851968 4 6 C2.68 4.02 1.36 2.04 0 0 Z " fill="#810202" transform="translate(234,136)"/>
<path d="M0 0 C4.35696352 2.80545944 8.31793077 5.55927832 10.27734375 10.546875 C11.19396634 17.14655761 10.92357142 21.90728944 7.58984375 27.796875 C5.69435267 29.79851358 3.8721987 31.19437046 1.58984375 32.796875 C0.92984375 32.796875 0.26984375 32.796875 -0.41015625 32.796875 C-0.41015625 44.346875 -0.41015625 55.896875 -0.41015625 67.796875 C1.89984375 67.796875 4.20984375 67.796875 6.58984375 67.796875 C10.92667167 70.0486895 13.75911791 72.22006041 15.58984375 76.796875 C16.41995838 81.69455133 16.18201057 85.53418444 13.40234375 89.734375 C11.08307634 92.54088347 9.2295783 94.01693188 5.58984375 94.796875 C-0.43315579 95.34442041 -4.40330782 94.15939877 -9.16015625 90.421875 C-11.98583557 86.74849189 -12.66269207 82.99817155 -12.72900391 78.45581055 C-12.7488736 77.4151091 -12.76874329 76.37440765 -12.78921509 75.3021698 C-12.8007663 74.1905397 -12.8123175 73.07890961 -12.82421875 71.93359375 C-12.8435849 70.78647415 -12.86295105 69.63935455 -12.88290405 68.45747375 C-12.94260092 64.7998494 -12.98904627 61.14219341 -13.03515625 57.484375 C-13.07334508 55.00193953 -13.11239733 52.51951718 -13.15234375 50.03710938 C-13.24829444 43.95714788 -13.33337103 37.87710711 -13.41015625 31.796875 C-14.37074951 31.50031006 -15.33134277 31.20374512 -16.32104492 30.89819336 C-19.56212641 29.74269517 -20.26780463 29.33957766 -21.72265625 26.359375 C-24.61883722 20.24521517 -25.32344786 15.73970352 -23.28515625 9.171875 C-20.67417559 4.47210981 -17.77711832 2.10493299 -13.03515625 -0.515625 C-8.19812361 -1.78246688 -4.50337346 -2.24803732 0 0 Z M-13.41015625 13.796875 C-14.02580381 17.49076034 -13.87078234 19.10593587 -11.78515625 22.234375 C-9.45737324 24.08713452 -9.45737324 24.08713452 -6.34765625 23.734375 C-2.68035929 22.63330925 -2.68035929 22.63330925 -0.41015625 19.796875 C0.17317708 16.296875 0.17317708 16.296875 -0.41015625 12.796875 C-2.48707423 10.41226547 -3.81572541 9.9009004 -6.91015625 9.359375 C-10.30850348 9.95408576 -11.42256659 10.99952658 -13.41015625 13.796875 Z M1.58984375 76.796875 C0.26984375 78.116875 -1.05015625 79.436875 -2.41015625 80.796875 C-1.42015625 82.446875 -0.43015625 84.096875 0.58984375 85.796875 C2.23984375 85.136875 3.88984375 84.476875 5.58984375 83.796875 C5.58984375 82.146875 5.58984375 80.496875 5.58984375 78.796875 C4.26984375 78.136875 2.94984375 77.476875 1.58984375 76.796875 Z " fill="#FF5A49" transform="translate(200.41015625,109.203125)"/>
<path d="M0 0 C5.77966388 1.11864462 10.88406314 2.67428639 16.3046875 4.9453125 C19.13015523 6.05093031 21.9606008 6.90773118 24.875 7.75 C33.36917134 10.29021909 41.49445227 13.72816886 49.69677734 17.07324219 C52.71630632 18.28822332 55.76242392 19.42671335 58.8125 20.5625 C62.27394559 21.86557978 65.62696703 23.27456391 68.94921875 24.89453125 C69.62299561 25.22187256 70.29677246 25.54921387 70.9909668 25.88647461 C72.29712576 26.52915752 73.59724821 27.18430992 74.88989258 27.85375977 C77.66122937 29.22343172 79.59542976 30.02856476 82.7109375 29.80859375 C84.81193931 29.06643099 86.67751197 28.26419492 88.625 27.1875 C92.70901158 25.05704575 96.90123755 23.53918961 101.2421875 22.015625 C104.65447155 20.75897648 107.93340782 19.28085708 111.22265625 17.734375 C113 17 113 17 115 17 C115 19.64 115 22.28 115 25 C109.72 25 104.44 25 99 25 C99 27.64 99 30.28 99 33 C85.8 33 72.6 33 59 33 C59 35.64 59 38.28 59 41 C53.72 41 48.44 41 43 41 C43 38.36 43 35.72 43 33 C42.18845459 33.01571045 41.37690918 33.0314209 40.54077148 33.04760742 C36.83975276 33.11022907 33.13884583 33.14907772 29.4375 33.1875 C28.16068359 33.21263672 26.88386719 33.23777344 25.56835938 33.26367188 C13.08155582 33.36097164 13.08155582 33.36097164 8 30 C5.68452924 25.04225504 4.37640814 19.68524472 2.875 14.4375 C2.59785156 13.49197266 2.32070312 12.54644531 2.03515625 11.57226562 C1.77347656 10.66025391 1.51179687 9.74824219 1.2421875 8.80859375 C1.0035498 7.98157959 0.76491211 7.15456543 0.51904297 6.30249023 C0 4 0 4 0 0 Z " fill="#9F6F52" transform="translate(157,287)"/>
<path d="M0 0 C2.64 0 5.28 0 8 0 C8 2.64 8 5.28 8 8 C10.64 8 13.28 8 16 8 C16 21.2 16 34.4 16 48 C18.64 48 21.28 48 24 48 C23.63495381 53.96242105 22.11523114 57.63301354 18 62 C15.78789322 63.87299593 13.52875349 65.62123447 11.18359375 67.32421875 C8.93234102 68.97487989 8.93234102 68.97487989 6.9140625 71.09765625 C3.74586253 74.24645908 0.47947711 76 -4 76 C-4.43523765 67.81108421 -3.27068781 60.8497986 -1 53 C1.77322709 43.26115558 3.5257543 35.14039781 2 25 C1.34 25 0.68 25 0 25 C-0.226875 25.5775 -0.45375 26.155 -0.6875 26.75 C-2.33867256 29.58058154 -4.35621933 31.10190106 -7 33 C-7.33 33 -7.66 33 -8 33 C-8 30.03 -8 27.06 -8 24 C-10.64 24 -13.28 24 -16 24 C-16 21.36 -16 18.72 -16 16 C-13.36 16 -10.72 16 -8 16 C-8 13.36 -8 10.72 -8 8 C-5.36 8 -2.72 8 0 8 C0 5.36 0 2.72 0 0 Z " fill="#810609" transform="translate(312,192)"/>
<path d="M0 0 C4.29 0 8.58 0 13 0 C10.125 9.75 10.125 9.75 9 12 C8.72727063 15.97317106 8.76823219 19.95604499 8.75 23.9375 C8.729375 25.02869141 8.70875 26.11988281 8.6875 27.24414062 C8.68234375 28.32759766 8.6771875 29.41105469 8.671875 30.52734375 C8.6625293 31.50437256 8.65318359 32.48140137 8.64355469 33.48803711 C9.14490183 38.42768005 10.69361688 43.20992855 12 48 C0.12 48 -11.76 48 -24 48 C-24 50.64 -24 53.28 -24 56 C-26.64 56 -29.28 56 -32 56 C-32 50.72 -32 45.44 -32 40 C-29.36 40 -26.72 40 -24 40 C-24 34.72 -24 29.44 -24 24 C-21.36 24 -18.72 24 -16 24 C-16 21.36 -16 18.72 -16 16 C-13.36 16 -10.72 16 -8 16 C-8 13.36 -8 10.72 -8 8 C-5.36 8 -2.72 8 0 8 C0 5.36 0 2.72 0 0 Z " fill="#FD7567" transform="translate(248,16)"/>
<path d="M0 0 C2.64 0 5.28 0 8 0 C8 5.28 8 10.56 8 16 C12.95 16 17.9 16 23 16 C19.92728325 18.30453756 18.19684104 19.48500775 14.796875 20.76171875 C13.98968018 21.07302734 13.18248535 21.38433594 12.35083008 21.70507812 C10.58287249 22.37289577 8.81446343 23.03951918 7.0456543 23.70507812 C2.70529673 25.38067063 -1.34231115 27.08388035 -5.27734375 29.58203125 C-14.45997576 35.36780371 -14.45997576 35.36780371 -18.93554688 34.71972656 C-23.4322795 33.22605664 -27.40311421 30.74141156 -31.47558594 28.36132812 C-36.30963119 25.75449676 -41.45058334 23.86264943 -46.5625 21.875 C-47.63411377 21.4517041 -48.70572754 21.0284082 -49.80981445 20.59228516 C-65.70580447 14.21687681 -65.70580447 14.21687681 -82 9 C-82 8.67 -82 8.34 -82 8 C-73.42 8 -64.84 8 -56 8 C-56 10.64 -56 13.28 -56 16 C-50.72 16 -45.44 16 -40 16 C-40 13.36 -40 10.72 -40 8 C-26.8 8 -13.6 8 0 8 C0 5.36 0 2.72 0 0 Z " fill="#9E6E4E" transform="translate(256,312)"/>
<path d="M0 0 C-0.16433712 6.64818357 -1.36256314 12.85597869 -3.125 19.25 C-5.48068964 27.80118839 -7.50732675 36.4059293 -9.4375 45.0625 C-9.73396251 46.38973107 -10.03043061 47.71696088 -10.3269043 49.04418945 C-10.77295813 51.04183709 -11.21885186 53.03951952 -11.66413879 55.03733826 C-13.22081099 62.01203422 -14.82576346 68.97532259 -16.4375 75.9375 C-16.696521 77.05713135 -16.95554199 78.1767627 -17.22241211 79.33032227 C-17.81429751 81.88703148 -18.4067683 84.44360289 -19 87 C-19.33 87 -19.66 87 -20 87 C-20 85.35 -20 83.7 -20 82 C-22.64 82 -25.28 82 -28 82 C-28 60.88 -28 39.76 -28 18 C-25.36 18 -22.72 18 -20 18 C-20 15.36 -20 12.72 -20 10 C-14.72 10 -9.44 10 -4 10 C-4 7.03 -4 4.06 -4 1 C-2 0 -2 0 0 0 Z " fill="#9A6C4D" transform="translate(284,350)"/>
<path d="M0 0 C1.65 0 3.3 0 5 0 C5 2.64 5 5.28 5 8 C12.92 8 20.84 8 29 8 C29.33 10.64 29.66 13.28 30 16 C37.59 16 45.18 16 53 16 C53 21.28 53 26.56 53 32 C55.64 32 58.28 32 61 32 C61 37.28 61 42.56 61 48 C63.64 48 66.28 48 69 48 C67.18336391 57.99149851 61.65782419 65.4391644 54 72 C53.67 72 53.34 72 53 72 C53 66.72 53 61.44 53 56 C50.36 56 47.72 56 45 56 C45 48.08 45 40.16 45 32 C42.36 32 39.72 32 37 32 C37 29.36 37 26.72 37 24 C36.34515625 24.0628418 35.6903125 24.12568359 35.015625 24.19042969 C16.34064772 25.75327207 16.34064772 25.75327207 10.90234375 21.6796875 C8.87970151 18.53514231 7.42288404 15.45383819 6 12 C4.86124656 10.10791736 3.69664053 8.23101389 2.5 6.375 C0 2.26595745 0 2.26595745 0 0 Z " fill="#C51A16" transform="translate(219,112)"/>
<path d="M0 0 C0 2.31 0 4.62 0 7 C-2.64 7 -5.28 7 -8 7 C-8 9.64 -8 12.28 -8 15 C-10.64 15 -13.28 15 -16 15 C-16 22.92 -16 30.84 -16 39 C-13.36 39 -10.72 39 -8 39 C-8 36.03 -8 33.06 -8 30 C-6.906875 30.0825 -5.81375 30.165 -4.6875 30.25 C-1.00924962 30.39873002 -1.00924962 30.39873002 0.875 28.1875 C2.11139895 25.92023801 2.11139895 25.92023801 3 23 C4.65 23 6.3 23 8 23 C8 25.64 8 28.28 8 31 C5.36 31 2.72 31 0 31 C0 33.64 0 36.28 0 39 C1.485 39.495 1.485 39.495 3 40 C2.67 50.89 2.34 61.78 2 73 C-13.4 80 -13.4 80 -19 80 C-18.99777939 79.39500671 -18.99555878 78.79001343 -18.99327087 78.16668701 C-18.9711557 71.87268667 -18.95606729 65.57869735 -18.94506836 59.28466797 C-18.94003811 56.93537955 -18.9332132 54.58609427 -18.92456055 52.23681641 C-18.91243782 48.86099474 -18.9067586 45.48521445 -18.90234375 42.109375 C-18.89718246 41.05820496 -18.89202118 40.00703491 -18.88670349 38.92401123 C-18.88662796 37.94329651 -18.88655243 36.96258179 -18.88647461 35.95214844 C-18.884254 35.09055115 -18.88203339 34.22895386 -18.87974548 33.34124756 C-18.9958732 31.08034514 -19.42618419 29.18079966 -20 27 C-20.37470661 21.19204751 -20.02989562 18.13362228 -17 13 C-14.6953125 10.5859375 -14.6953125 10.5859375 -12.125 8.375 C-11.28195312 7.64023438 -10.43890625 6.90546875 -9.5703125 6.1484375 C-8.72210938 5.43945312 -7.87390625 4.73046875 -7 4 C-6.11054688 3.24976563 -5.22109375 2.49953125 -4.3046875 1.7265625 C-2 0 -2 0 0 0 Z " fill="#960D0E" transform="translate(288,201)"/>
<path d="M0 0 C5.87317278 0.55934979 9.83707173 2.61332053 13.8125 7 C15.92353068 10.55542009 16.1240379 13.87329634 16.11352539 17.95214844 C16.11344986 18.93286316 16.11337433 19.91357788 16.11329651 20.92401123 C16.10813522 21.97518127 16.10297394 23.02635132 16.09765625 24.109375 C16.0962413 25.19132141 16.09482635 26.27326782 16.09336853 27.38800049 C16.08777318 30.8420285 16.0752215 34.29599159 16.0625 37.75 C16.0574844 40.09244698 16.0529216 42.43489498 16.04882812 44.77734375 C16.03780528 50.5182513 16.02107174 56.25912101 16 62 C11.3171994 61.2779841 7.14783547 60.12022746 2.6875 58.5 C0.83705078 57.83484375 0.83705078 57.83484375 -1.05078125 57.15625 C-4 56 -4 56 -5 55 C-5.08713831 53.29227642 -5.10700007 51.58101351 -5.09765625 49.87109375 C-5.09443359 48.83662109 -5.09121094 47.80214844 -5.08789062 46.73632812 C-5.07951172 45.64771484 -5.07113281 44.55910156 -5.0625 43.4375 C-5.05798828 42.34501953 -5.05347656 41.25253906 -5.04882812 40.12695312 C-5.03699826 37.41791505 -5.02051543 34.70898401 -5 32 C-5.804375 31.87625 -6.60875 31.7525 -7.4375 31.625 C-8.7059375 31.315625 -8.7059375 31.315625 -10 31 C-10.33 30.34 -10.66 29.68 -11 29 C-7.37 29 -3.74 29 0 29 C0 27.35 0 25.7 0 24 C1.65 23.34 3.3 22.68 5 22 C5 19.03 5 16.06 5 13 C5.99 13 6.98 13 8 13 C8 10.36 8 7.72 8 5 C5.36 5 2.72 5 0 5 C0 3.35 0 1.7 0 0 Z " fill="#98110E" transform="translate(192,219)"/>
<path d="M0 0 C3.83833256 1.55040832 7.66964415 3.11749949 11.5 4.6875 C12.57765625 5.12255859 13.6553125 5.55761719 14.765625 6.00585938 C17.87009098 7.28361214 20.93448479 8.63190818 24 10 C24.82951172 10.31751221 25.65902344 10.63502441 26.51367188 10.9621582 C28.93458087 12.08316088 30.3242293 12.91352905 32 15 C33.25319929 19.58574423 33.39221546 24.07732928 33.5 28.8125 C33.55929688 30.07771484 33.61859375 31.34292969 33.6796875 32.64648438 C33.82081079 35.76295696 33.91496913 38.88149284 34 42 C30.04 42 26.08 42 22 42 C22 39.36 22 36.72 22 34 C17.05 34 12.1 34 7 34 C5.43128522 28.50949829 3.90612786 23.01715986 2.4375 17.5 C2.21642578 16.68402344 1.99535156 15.86804688 1.76757812 15.02734375 C0.52860475 10.36341375 -0.53802908 5.80956024 -1 1 C-0.67 0.67 -0.34 0.34 0 0 Z " fill="#936244" transform="translate(194,350)"/>
<path d="M0 0 C1.65 0 3.3 0 5 0 C5 31.68 5 63.36 5 96 C10.28 96 15.56 96 21 96 C21 74.88 21 53.76 21 32 C21.33 32 21.66 32 22 32 C22 59.06 22 86.12 22 114 C13 119 13 119 9.75 118.4375 C8.8425 117.963125 7.935 117.48875 7 117 C6.071875 116.67 5.14375 116.34 4.1875 116 C2 115 2 115 1 113 C0.91039584 111.61141268 0.88241999 110.21858736 0.88647461 108.82711792 C0.88658035 107.51510658 0.88658035 107.51510658 0.88668823 106.17658997 C0.89185455 105.21452133 0.89702087 104.2524527 0.90234375 103.26123047 C0.90380402 102.24966385 0.90526428 101.23809723 0.9067688 100.19587708 C0.91058198 97.99307648 0.91670604 95.79027898 0.92483521 93.58749008 C0.93756778 90.09861388 0.94410713 86.60977559 0.94897461 83.12088013 C0.96236859 74.4494838 0.98649912 65.77812316 1.01037598 57.10675049 C1.03012926 49.79125292 1.04576546 42.47576898 1.05593872 35.16025162 C1.06240867 31.7281374 1.07492083 28.29607905 1.08764648 24.86398315 C1.09128122 22.7477015 1.09463268 20.63141933 1.09765625 18.51513672 C1.10282257 17.56521347 1.10798889 16.61529022 1.11331177 15.63658142 C1.11373141 10.3292025 0.77596532 5.2519101 0 0 Z " fill="#870A0A" transform="translate(227,176)"/>
<path d="M0 0 C2.64 0 5.28 0 8 0 C8 2.64 8 5.28 8 8 C10.64 8 13.28 8 16 8 C16 10.64 16 13.28 16 16 C18.64 16 21.28 16 24 16 C24 18.64 24 21.28 24 24 C21.36 24 18.72 24 16 24 C16 27.3 16 30.6 16 34 C15.67 34 15.34 34 15 34 C14.7525 32.453125 14.7525 32.453125 14.5 30.875 C13.12866857 25.85019605 9.20678847 23.67082152 5 21 C3.69454798 22.07469543 3.69454798 22.07469543 3.9453125 24.6328125 C4.30054422 31.53666382 5.18981116 37.29023265 7.5625 43.75 C9.73848628 49.73396226 10.67055526 54.66697811 10 61 C0.90729734 58.37916217 -6.79625289 52.04209132 -13 45 C-13 44.34 -13 43.68 -13 43 C-13.66 43 -14.32 43 -15 43 C-15.495 41.515 -15.495 41.515 -16 40 C-13.36 40 -10.72 40 -8 40 C-8 42.64 -8 45.28 -8 48 C-5.36 48 -2.72 48 0 48 C0 32.16 0 16.32 0 0 Z " fill="#7A0104" transform="translate(160,208)"/>
<path d="M0 0 C5.07193078 -0.12355727 10.14298696 -0.21431615 15.21606445 -0.2746582 C16.94180559 -0.29981005 18.66744012 -0.33393619 20.39282227 -0.37719727 C22.87282581 -0.43782433 25.35142222 -0.46620101 27.83203125 -0.48828125 C28.98998955 -0.52699089 28.98998955 -0.52699089 30.17134094 -0.56648254 C32.35473633 -0.56762695 32.35473633 -0.56762695 36 0 C37.94799805 2.40551758 37.94799805 2.40551758 39 5 C39.495 5.99 39.495 5.99 40 7 C40 9.97 40 12.94 40 16 C24.16 16 8.32 16 -8 16 C-8 13.36 -8 10.72 -8 8 C-5.36 8 -2.72 8 0 8 C0 5.36 0 2.72 0 0 Z " fill="#FC594B" transform="translate(224,64)"/>
<path d="M0 0 C1.65 0 3.3 0 5 0 C5 13.2 5 26.4 5 40 C7.64 40 10.28 40 13 40 C13 37.69 13 35.38 13 33 C18.70589472 32.54352842 21.60098008 33.30082416 26 37 C29.1249654 40.64579297 29.58150374 44.05020271 29.41796875 48.71484375 C28.7052089 52.61170835 26.81265899 55.2725731 24 58 C20.10245206 60.35904217 16.48973982 60.39383683 12 60 C7.33371303 58.11553795 4.0807679 56.33369504 1.94180298 51.71504211 C0.98085133 48.94479795 0.72640144 46.85289308 0.68115234 43.93432617 C0.66128265 42.95368698 0.64141296 41.97304779 0.62094116 40.96269226 C0.60938995 39.9166835 0.59783875 38.87067474 0.5859375 37.79296875 C0.56657135 36.71243729 0.5472052 35.63190582 0.5272522 34.51863098 C0.46757897 31.0750004 0.42111959 27.63133617 0.375 24.1875 C0.33680899 21.84959498 0.2977566 19.51170385 0.2578125 17.17382812 C0.16188747 11.44934235 0.07680407 5.72477252 0 0 Z M15 42 C13.68 43.32 12.36 44.64 11 46 C11.99 47.65 12.98 49.3 14 51 C15.65 50.34 17.3 49.68 19 49 C19 47.35 19 45.7 19 44 C17.68 43.34 16.36 42.68 15 42 Z " fill="#CC1B17" transform="translate(187,144)"/>
<path d="M0 0 C-0.57584432 2.38564077 -1.22227595 4.66682784 -2 7 C-6.62 7 -11.24 7 -16 7 C-16 9.64 -16 12.28 -16 15 C-18.64 15 -21.28 15 -24 15 C-24 17.64 -24 20.28 -24 23 C-26.64 23 -29.28 23 -32 23 C-32 25.64 -32 28.28 -32 31 C-34.64 31 -37.28 31 -40 31 C-40 36.28 -40 41.56 -40 47 C-42.64 47 -45.28 47 -48 47 C-48 63.5 -48 80 -48 97 C-55.60946678 85.58579983 -56.76726646 70.3874154 -54.2734375 57.140625 C-51.75550155 47.10982325 -48.59108521 36.18203681 -42 28 C-41.34 28 -40.68 28 -40 28 C-40 27.01 -40 26.02 -40 25 C-37.21462471 21.82776704 -34.72826984 19.86413492 -31 18 C-30.67 17.01 -30.34 16.02 -30 15 C-26.55555556 12 -26.55555556 12 -24 12 C-23.67 11.01 -23.34 10.02 -23 9 C-20.58701916 7.34089375 -18.21322751 5.8398747 -15.6875 4.375 C-15.01009766 3.96765625 -14.33269531 3.5603125 -13.63476562 3.140625 C-5.38424495 -1.73065016 -5.38424495 -1.73065016 0 0 Z " fill="#000000" transform="translate(264,9)"/>
<path d="M0 0 C0 7.92 0 15.84 0 24 C2.64 24 5.28 24 8 24 C8 27.3 8 30.6 8 34 C7.01 34.495 7.01 34.495 6 35 C5.34310735 36.41418374 4.7472569 37.85713207 4.1875 39.3125 C2.45333962 43.34602859 0.94224204 45.78849837 -3 48 C-5.8125 48.25 -5.8125 48.25 -8 48 C-8 45.36 -8 42.72 -8 40 C-5.36 40 -2.72 40 0 40 C0 37.36 0 34.72 0 32 C-1.0828125 32.1546875 -1.0828125 32.1546875 -2.1875 32.3125 C-5 32 -5 32 -7.375 29.4375 C-8.24125 28.633125 -9.1075 27.82875 -10 27 C-13.74360341 27.05728998 -13.74360341 27.05728998 -17 28 C-17.68493373 30.85778033 -17.68493373 30.85778033 -18 34 C-17.34 34.99 -16.68 35.98 -16 37 C-15.8046875 39.69921875 -15.8046875 39.69921875 -15.875 42.6875 C-15.89304687 43.68136719 -15.91109375 44.67523438 -15.9296875 45.69921875 C-15.96449219 46.83810547 -15.96449219 46.83810547 -16 48 C-18.64 48 -21.28 48 -24 48 C-24 40.08 -24 32.16 -24 24 C-21.36 24 -18.72 24 -16 24 C-16 21.36 -16 18.72 -16 16 C-13.36 16 -10.72 16 -8 16 C-8.0825 14.783125 -8.165 13.56625 -8.25 12.3125 C-8.25586141 8.99493921 -8.06642499 8.10307326 -6.1875 5.1875 C-5.465625 4.465625 -4.74375 3.74375 -4 3 C-3.443125 2.401875 -2.88625 1.80375 -2.3125 1.1875 C-1 0 -1 0 0 0 Z " fill="#CC1613" transform="translate(296,192)"/>
<path d="M0 0 C11.00615503 5.50307752 18.9797078 19.09703412 24 30 C24 30.66 24 31.32 24 32 C21.36 32 18.72 32 16 32 C16 34.64 16 37.28 16 40 C12.535 40.495 12.535 40.495 9 41 C8.67 43.31 8.34 45.62 8 48 C5.36 48 2.72 48 0 48 C0 32.16 0 16.32 0 0 Z " fill="#D41D1C" transform="translate(312,136)"/>
<path d="M0 0 C5.28 0 10.56 0 16 0 C16 13.2 16 26.4 16 40 C10.72 40 5.44 40 0 40 C0 26.8 0 13.6 0 0 Z " fill="#A21110" transform="translate(232,232)"/>
<path d="M0 0 C2.64 0 5.28 0 8 0 C8 7.92 8 15.84 8 24 C2.72 24 -2.56 24 -8 24 C-8 26.64 -8 29.28 -8 32 C-10.64 32 -13.28 32 -16 32 C-16 29.36 -16 26.72 -16 24 C-17.98 24 -19.96 24 -22 24 C-24 20 -24 20 -24 8 C-16.08 8 -8.16 8 0 8 C0 5.36 0 2.72 0 0 Z " fill="#F1392E" transform="translate(240,88)"/>
<path d="M0 0 C7.26 0 14.52 0 22 0 C22 2.64 22 5.28 22 8 C24.64 8 27.28 8 30 8 C30 13.28 30 18.56 30 24 C27.36 24 24.72 24 22 24 C22 21.36 22 18.72 22 16 C16.72 16 11.44 16 6 16 C6 13.36 6 10.72 6 8 C3.36 8 0.72 8 -2 8 C-2 10.64 -2 13.28 -2 16 C-4.64 16 -7.28 16 -10 16 C-10 23.26 -10 30.52 -10 38 C-16.15681234 31.84318766 -16.15681234 31.84318766 -16.3125 25.3125 C-16.29198916 19.63099799 -15.31518485 16.55837917 -12 12 C-11.34 12 -10.68 12 -10 12 C-10 11.34 -10 10.68 -10 10 C-5.25645564 7.77343836 -1.27749285 6.53851968 4 6 C2.68 4.02 1.36 2.04 0 0 Z " fill="#97080D" transform="translate(234,136)"/>
<path d="M0 0 C2.64 0 5.28 0 8 0 C8 2.64 8 5.28 8 8 C13.28 8 18.56 8 24 8 C24 15.92 24 23.84 24 32 C21.36 32 18.72 32 16 32 C16 26.72 16 21.44 16 16 C14.02 16 12.04 16 10 16 C9.814375 15.360625 9.62875 14.72125 9.4375 14.0625 C8.06990621 11.63319686 8.06990621 11.63319686 4.625 11.0625 C1.11081766 10.75090824 1.11081766 10.75090824 -1.4375 12.0625 C-3.24289571 13.9882545 -3.24289571 13.9882545 -3.5625 17 C-3.30126029 20.12739735 -3.30126029 20.12739735 -0.875 21.8125 C2.11151744 23.04606155 4.79767265 23.62763635 8 24 C8 26.64 8 29.28 8 32 C5.52076199 32.02685095 3.0418116 32.04676547 0.5625 32.0625 C-0.14455078 32.07087891 -0.85160156 32.07925781 -1.58007812 32.08789062 C-3.38693559 32.09653588 -5.19387603 32.05220011 -7 32 C-8 31 -8 31 -8.11352539 28.77514648 C-8.10828857 27.81680908 -8.10305176 26.85847168 -8.09765625 25.87109375 C-8.09443359 24.83662109 -8.09121094 23.80214844 -8.08789062 22.73632812 C-8.07951172 21.64771484 -8.07113281 20.55910156 -8.0625 19.4375 C-8.05798828 18.34501953 -8.05347656 17.25253906 -8.04882812 16.12695312 C-8.03699826 13.41791505 -8.02051543 10.70898401 -8 8 C-5.36 8 -2.72 8 0 8 C0 5.36 0 2.72 0 0 Z " fill="#EB3A34" transform="translate(232,144)"/>
<path d="M0 0 C4.29 0 8.58 0 13 0 C11.40615011 5.36113145 9.8106711 10.70726908 8 16 C5.36 16 2.72 16 0 16 C0 18.64 0 21.28 0 24 C-2.64 24 -5.28 24 -8 24 C-8 26.64 -8 29.28 -8 32 C-10.64 32 -13.28 32 -16 32 C-16 34.64 -16 37.28 -16 40 C-18.64 40 -21.28 40 -24 40 C-24 34.72 -24 29.44 -24 24 C-21.36 24 -18.72 24 -16 24 C-16 21.36 -16 18.72 -16 16 C-13.36 16 -10.72 16 -8 16 C-8 13.36 -8 10.72 -8 8 C-5.36 8 -2.72 8 0 8 C0 5.36 0 2.72 0 0 Z " fill="#F8BDB9" transform="translate(248,16)"/>
<path d="M0 0 C3.63 0 7.26 0 11 0 C11 0.66 11 1.32 11 2 C11.8353125 2.37125 11.8353125 2.37125 12.6875 2.75 C15.4088901 4.22102167 17.61578522 6.03302281 20 8 C20.763125 8.474375 21.52625 8.94875 22.3125 9.4375 C24 11 24 11 24.25 13.6875 C24.1675 14.450625 24.085 15.21375 24 16 C26.64 16 29.28 16 32 16 C32 18.64 32 21.28 32 24 C29.44249889 23.48849978 26.94271101 22.98323249 24.4375 22.25 C21.89538744 21.73809963 21.89538744 21.73809963 19.6875 23.4375 C19.130625 23.953125 18.57375 24.46875 18 25 C18.10407917 28.40080577 18.10407917 28.40080577 19 32 C20.64142963 33.0409066 22.30712215 34.04504326 24 35 C24.15234375 37.5859375 24.15234375 37.5859375 24 40 C21.89758397 40.13496251 19.7927039 40.23197307 17.6875 40.3125 C16.51574219 40.37050781 15.34398437 40.42851562 14.13671875 40.48828125 C11 40 11 40 9.09375 37.84375 C7.89366294 34.72352365 7.69221145 32.51548311 7.8125 29.1875 C7.83957031 28.21167969 7.86664063 27.23585937 7.89453125 26.23046875 C7.94673828 25.12638672 7.94673828 25.12638672 8 24 C10.64 24 13.28 24 16 24 C16 21.36 16 18.72 16 16 C13.36 16 10.72 16 8 16 C8 13.36 8 10.72 8 8 C5.36 8 2.72 8 0 8 C0 5.36 0 2.72 0 0 Z " fill="#A71B16" transform="translate(168,208)"/>
<path d="M0 0 C5.28 0 10.56 0 16 0 C16 10.56 16 21.12 16 32 C13.36 32 10.72 32 8 32 C8 29.36 8 26.72 8 24 C6.741875 24.061875 5.48375 24.12375 4.1875 24.1875 C1.69493474 24.31008518 0.46171364 24.32704716 -1.59375 22.87109375 C-3.47531 20.36757364 -4.52263119 17.77842677 -5.6875 14.875 C-6.34298828 13.26238281 -6.34298828 13.26238281 -7.01171875 11.6171875 C-8 9 -8 9 -8 8 C-5.36 8 -2.72 8 0 8 C0 5.36 0 2.72 0 0 Z " fill="#A30D11" transform="translate(144,224)"/>
<path d="M0 0 C0.78375 0.04125 1.5675 0.0825 2.375 0.125 C3.035 1.445 3.695 2.765 4.375 4.125 C2.065 4.125 -0.245 4.125 -2.625 4.125 C-2.625 6.765 -2.625 9.405 -2.625 12.125 C-5.265 12.125 -7.905 12.125 -10.625 12.125 C-10.625 20.045 -10.625 27.965 -10.625 36.125 C-13.265 36.125 -15.905 36.125 -18.625 36.125 C-18.625 38.765 -18.625 41.405 -18.625 44.125 C-21.265 44.125 -23.905 44.125 -26.625 44.125 C-26.625 56.995 -26.625 69.865 -26.625 83.125 C-26.955 83.125 -27.285 83.125 -27.625 83.125 C-33.78340904 60.1409377 -28.87168298 38.37826689 -17.625 18.125 C-17.09003906 17.14917969 -16.55507812 16.17335937 -16.00390625 15.16796875 C-15.54886719 14.49378906 -15.09382812 13.81960937 -14.625 13.125 C-13.965 13.125 -13.305 13.125 -12.625 13.125 C-12.191875 12.2278125 -12.191875 12.2278125 -11.75 11.3125 C-10.625 9.125 -10.625 9.125 -8.625 6.125 C-7.965 6.125 -7.305 6.125 -6.625 6.125 C-6.191875 5.196875 -6.191875 5.196875 -5.75 4.25 C-4.16515329 1.25640067 -3.47581022 0.16551477 0 0 Z " fill="#F02F26" transform="translate(162.625,147.875)"/>
<path d="M0 0 C6.93 0 13.86 0 21 0 C21 8.25 21 16.5 21 25 C16.14858865 24.19143144 12.25880098 23.16053594 7.6875 21.5 C6.45386719 21.0565625 5.22023437 20.613125 3.94921875 20.15625 C1 19 1 19 0 18 C-0.08631874 16.65732587 -0.10706473 15.31025678 -0.09765625 13.96484375 C-0.09515869 13.23644287 -0.09266113 12.50804199 -0.09008789 11.75756836 C-0.08098389 10.8269458 -0.07187988 9.89632324 -0.0625 8.9375 C-0.041875 5.988125 -0.02125 3.03875 0 0 Z " fill="#8E0D09" transform="translate(187,256)"/>
<path d="M0 0 C0.33 0 0.66 0 1 0 C1 2.31 1 4.62 1 7 C3.64 7 6.28 7 9 7 C4.375 11.875 4.375 11.875 1 13 C1 26.86 1 40.72 1 55 C-1.64 55 -4.28 55 -7 55 C-7 38.17 -7 21.34 -7 4 C-5.02 3.01 -3.04 2.02 -1 1 C-0.67 0.67 -0.34 0.34 0 0 Z " fill="#D2201C" transform="translate(199,129)"/>
<path d="M0 0 C2.64 0 5.28 0 8 0 C8 2.64 8 5.28 8 8 C10.64 8 13.28 8 16 8 C16 13.28 16 18.56 16 24 C10.72 24.33 5.44 24.66 0 25 C0 22.03 0 19.06 0 16 C-5.28 16 -10.56 16 -16 16 C-16 13.36 -16 10.72 -16 8 C-10.72 8 -5.44 8 0 8 C0 5.36 0 2.72 0 0 Z " fill="#D4211C" transform="translate(248,104)"/>
<path d="M0 0 C0 2.64 0 5.28 0 8 C-5.28 8 -10.56 8 -16 8 C-16 10.64 -16 13.28 -16 16 C-18.64 16 -21.28 16 -24 16 C-24 31.84 -24 47.68 -24 64 C-26.64 64 -29.28 64 -32 64 C-31.87802744 62.15491989 -31.7555086 60.30987589 -31.6328125 58.46484375 C-31.55401855 57.27334717 -31.47522461 56.08185059 -31.39404297 54.85424805 C-31.21351174 52.22606071 -31.02229206 49.59858739 -30.82080078 46.97192383 C-30.3427815 40.71781443 -29.95055969 34.51275164 -29.984375 28.234375 C-29.86499816 14.07650522 -29.86499816 14.07650522 -26.48876953 10.31738281 C-22.661894 7.49419556 -18.47808722 5.95397246 -13.95117188 4.60400391 C-11.40209554 3.81491296 -9.07547919 2.68212877 -6.6875 1.5 C-3 0 -3 0 0 0 Z " fill="#000000" transform="translate(280,352)"/>
<path d="M0 0 C10.56 0 21.12 0 32 0 C32 2.64 32 5.28 32 8 C29.36 8 26.72 8 24 8 C24 10.64 24 13.28 24 16 C16.08 16 8.16 16 0 16 C0 10.72 0 5.44 0 0 Z " fill="#FD4C3E" transform="translate(216,80)"/>
<path d="M0 0 C2.67479093 2.34523216 3.88166223 4.58288792 5.1875 7.875 C5.53167969 8.71804687 5.87585938 9.56109375 6.23046875 10.4296875 C7 13 7 13 7 18 C-0.59 18 -8.18 18 -16 18 C-16 15.36 -16 12.72 -16 10 C-18.64 10 -21.28 10 -24 10 C-24 7.36 -24 4.72 -24 2 C-16.08 2 -8.16 2 0 2 C0 1.34 0 0.68 0 0 Z " fill="#FB473D" transform="translate(280,102)"/>
<path d="M0 0 C1.65 0 3.3 0 5 0 C5 37.95 5 75.9 5 115 C4.01 115 3.02 115 2 115 C0.84492179 112.68984358 0.87898751 111.39654943 0.88647461 108.82711792 C0.88658035 107.51510658 0.88658035 107.51510658 0.88668823 106.17658997 C0.89185455 105.21452133 0.89702087 104.2524527 0.90234375 103.26123047 C0.90380402 102.24966385 0.90526428 101.23809723 0.9067688 100.19587708 C0.91058198 97.99307648 0.91670604 95.79027898 0.92483521 93.58749008 C0.93756778 90.09861388 0.94410713 86.60977559 0.94897461 83.12088013 C0.96236859 74.4494838 0.98649912 65.77812316 1.01037598 57.10675049 C1.03012926 49.79125292 1.04576546 42.47576898 1.05593872 35.16025162 C1.06240867 31.7281374 1.07492083 28.29607905 1.08764648 24.86398315 C1.09128122 22.7477015 1.09463268 20.63141933 1.09765625 18.51513672 C1.10282257 17.56521347 1.10798889 16.61529022 1.11331177 15.63658142 C1.11373141 10.3292025 0.77596532 5.2519101 0 0 Z " fill="#000000" transform="translate(227,176)"/>
<path d="M0 0 C1.98 0 3.96 0 6 0 C6 10.56 6 21.12 6 32 C-1.92 32.495 -1.92 32.495 -10 33 C-10 27.39 -10 21.78 -10 16 C-7.36 16 -4.72 16 -2 16 C-2 13.36 -2 10.72 -2 8 C-3.65 8 -5.3 8 -7 8 C-6.360625 7.71125 -5.72125 7.4225 -5.0625 7.125 C-2.84793921 6.17176549 -2.84793921 6.17176549 -2 4 C-1.34 4 -0.68 4 0 4 C0 2.68 0 1.36 0 0 Z " fill="#CB1D17" transform="translate(242,160)"/>
<path d="M0 0 C1.65 0 3.3 0 5 0 C5 2.64 5 5.28 5 8 C12.92 8 20.84 8 29 8 C29 13.28 29 18.56 29 24 C19.28496483 25.04089663 19.28496483 25.04089663 14 24 C10.21389696 20.57694794 8.25004717 16.53200989 6 12 C4.8466514 10.11677853 3.68118393 8.2408887 2.5 6.375 C0 2.26595745 0 2.26595745 0 0 Z " fill="#A80808" transform="translate(219,112)"/>
<path d="M0 0 C2.31 0 4.62 0 7 0 C6.67644531 1.10730469 6.35289062 2.21460938 6.01953125 3.35546875 C4.77595939 8.35504545 4.65777763 13.18028323 4.6875 18.3125 C4.68943359 19.69538208 4.68943359 19.69538208 4.69140625 21.10620117 C4.7850374 27.74289418 5.55140447 33.77648636 8 40 C5.36 40 2.72 40 0 40 C0 34.72 0 29.44 0 24 C-2.64 24 -5.28 24 -8 24 C-8 18.72 -8 13.44 -8 8 C-5.36 8 -2.72 8 0 8 C0 5.36 0 2.72 0 0 Z " fill="#F44132" transform="translate(160,152)"/>
<path d="M0 0 C2.64 0 5.28 0 8 0 C8 13.2 8 26.4 8 40 C5.36 40 2.72 40 0 40 C0 26.8 0 13.6 0 0 Z " fill="#C5181A" transform="translate(136,192)"/>
<path d="M0 0 C2.86724686 0.57344937 3.8614515 0.8614515 6 3 C6.20254517 5.06277466 6.20254517 5.06277466 6.13525391 7.63330078 C6.11508209 8.59414581 6.09491028 9.55499084 6.0741272 10.54495239 C6.02583267 12.10438065 6.02583267 12.10438065 5.9765625 13.6953125 C5.95153656 14.75789276 5.92651062 15.82047302 5.90072632 16.91525269 C5.81836358 20.31881853 5.72183656 23.72181812 5.625 27.125 C5.56677711 29.42836207 5.5094735 31.73174757 5.453125 34.03515625 C5.31276068 39.69041959 5.16075653 45.3452816 5 51 C2.36 51 -0.28 51 -3 51 C-3 53.64 -3 56.28 -3 59 C-5.64 59 -8.28 59 -11 59 C-10.52949219 58.21496094 -10.05898438 57.42992187 -9.57421875 56.62109375 C0.48982941 39.63931477 3.12182196 25.45318582 -1.5390625 6.15234375 C-2 3 -2 3 0 0 Z " fill="#000000" transform="translate(307,133)"/>
<path d="M0 0 C2.64 0 5.28 0 8 0 C7.63495381 5.96242105 6.11523114 9.63301354 2 14 C-0.21210678 15.87299593 -2.47124651 17.62123447 -4.81640625 19.32421875 C-7.06364938 20.95684465 -7.06364938 20.95684465 -8.96484375 23.08203125 C-11 25 -11 25 -16 27 C-16 20.73 -16 14.46 -16 8 C-10.72 8 -5.44 8 0 8 C0 5.36 0 2.72 0 0 Z " fill="#900D09" transform="translate(328,240)"/>
<path d="M0 0 C2.64 0 5.28 0 8 0 C8.01458252 0.57854736 8.02916504 1.15709473 8.04418945 1.75317383 C8.45543007 17.11216252 8.45543007 17.11216252 12 32 C8.04 32 4.08 32 0 32 C0 21.44 0 10.88 0 0 Z " fill="#FFCABA" transform="translate(248,32)"/>
<path d="M0 0 C0 2.31 0 4.62 0 7 C-2.64 7 -5.28 7 -8 7 C-8 9.64 -8 12.28 -8 15 C-10.64 15 -13.28 15 -16 15 C-15.67 36.45 -15.34 57.9 -15 80 C-16.32 80 -17.64 80 -19 80 C-18.99777939 79.39500671 -18.99555878 78.79001343 -18.99327087 78.16668701 C-18.9711557 71.87268667 -18.95606729 65.57869735 -18.94506836 59.28466797 C-18.94003811 56.93537955 -18.9332132 54.58609427 -18.92456055 52.23681641 C-18.91243782 48.86099474 -18.9067586 45.48521445 -18.90234375 42.109375 C-18.89718246 41.05820496 -18.89202118 40.00703491 -18.88670349 38.92401123 C-18.88662796 37.94329651 -18.88655243 36.96258179 -18.88647461 35.95214844 C-18.884254 35.09055115 -18.88203339 34.22895386 -18.87974548 33.34124756 C-18.9958732 31.08034514 -19.42618419 29.18079966 -20 27 C-20.37470661 21.19204751 -20.02989562 18.13362228 -17 13 C-14.6953125 10.5859375 -14.6953125 10.5859375 -12.125 8.375 C-11.28195312 7.64023438 -10.43890625 6.90546875 -9.5703125 6.1484375 C-8.72210938 5.43945312 -7.87390625 4.73046875 -7 4 C-6.11054688 3.24976563 -5.22109375 2.49953125 -4.3046875 1.7265625 C-2 0 -2 0 0 0 Z " fill="#000000" transform="translate(288,201)"/>
<path d="M0 0 C0.33 0 0.66 0 1 0 C1 18.81 1 37.62 1 57 C-6.13591083 46.29613375 -7.94165009 31.52298204 -5.62646484 18.97558594 C-4.18023412 12.52222415 -2.11543326 6.26053896 0 0 Z " fill="#000000" transform="translate(215,49)"/>
<path d="M0 0 C5.28 0 10.56 0 16 0 C16 5.28 16 10.56 16 16 C10.72 16 5.44 16 0 16 C0 10.72 0 5.44 0 0 Z " fill="#920C0D" transform="translate(232,256)"/>
<path d="M0 0 C2.64 0 5.28 0 8 0 C8 5.28 8 10.56 8 16 C5.36 16 2.72 16 0 16 C0 18.64 0 21.28 0 24 C-2.64 24 -5.28 24 -8 24 C-8 18.72 -8 13.44 -8 8 C-5.36 8 -2.72 8 0 8 C0 5.36 0 2.72 0 0 Z " fill="#D8271F" transform="translate(304,184)"/>
<path d="M0 0 C2.64 0 5.28 0 8 0 C8 7.92 8 15.84 8 24 C2.72 24 -2.56 24 -8 24 C-8 21.36 -8 18.72 -8 16 C-5.36 16 -2.72 16 0 16 C0 10.72 0 5.44 0 0 Z " fill="#DB2924" transform="translate(240,88)"/>
<path d="M0 0 C0.125 6.75 0.125 6.75 -1 9 C-8.59 9 -16.18 9 -24 9 C-24 11.64 -24 14.28 -24 17 C-31.92 17 -39.84 17 -48 17 C-37.1638422 11.5819211 -25.76480952 7.7428078 -14.32617188 3.82324219 C-12.07593561 3.02687394 -9.86083929 2.16503049 -7.640625 1.2890625 C-4 0 -4 0 0 0 Z " fill="#000000" transform="translate(320,287)"/>
<path d="M0 0 C1.65 0 3.3 0 5 0 C5 2.64 5 5.28 5 8 C2.36 8 -0.28 8 -3 8 C-3 13.28 -3 18.56 -3 24 C-8.28 24 -13.56 24 -19 24 C-19 21.36 -19 18.72 -19 16 C-16.36 16 -13.72 16 -11 16 C-11 13.03 -11 10.06 -11 7 C-9.906875 7.0825 -8.81375 7.165 -7.6875 7.25 C-4.00924962 7.39873002 -4.00924962 7.39873002 -2.125 5.1875 C-0.88860105 2.92023801 -0.88860105 2.92023801 0 0 Z " fill="#AC1311" transform="translate(291,224)"/>
<path d="M0 0 C2.64 0 5.28 0 8 0 C11.2388693 3.52201139 12.32085194 8.59152699 13.6875 13.125 C13.91244141 13.84042969 14.13738281 14.55585938 14.36914062 15.29296875 C15.2922183 18.29507546 16 20.84151102 16 24 C13.36 24 10.72 24 8 24 C8 21.36 8 18.72 8 16 C5.36 16 2.72 16 0 16 C0 10.72 0 5.44 0 0 Z " fill="#CC1E20" transform="translate(328,168)"/>
<path d="M0 0 C9.08203125 -0.48828125 9.08203125 -0.48828125 12 0 C13.82421875 2.39453125 13.82421875 2.39453125 15 5 C15.33 5.66 15.66 6.32 16 7 C16.13559318 10.00474497 16.04299016 12.99068847 16 16 C10.72 16 5.44 16 0 16 C0 10.72 0 5.44 0 0 Z " fill="#FF7B68" transform="translate(248,64)"/>
<path d="M0 0 C3.61845567 4.03596978 6.01581041 8.52322815 8.53515625 13.28125 C9.5200514 15.1092154 10.57199306 16.90244845 11.68359375 18.65625 C13 21 13 21 13 24 C11.35 24 9.7 24 8 24 C8 21.36 8 18.72 8 16 C0.08 16 -7.84 16 -16 16 C-16 13.36 -16 10.72 -16 8 C-10.72 8 -5.44 8 0 8 C0 5.36 0 2.72 0 0 Z " fill="#FE6C5E" transform="translate(264,72)"/>
<path d="M0 0 C3.6387852 1.8193926 5.53843278 2.87189944 8 6 C8.45410156 8.84082031 8.45410156 8.84082031 8.390625 12.078125 C8.37773437 13.23828125 8.36484375 14.3984375 8.3515625 15.59375 C8.31804687 16.8003125 8.28453125 18.006875 8.25 19.25 C8.23195313 20.47203125 8.21390625 21.6940625 8.1953125 22.953125 C8.148181 25.96954078 8.08239413 28.98437491 8 32 C5.36 32 2.72 32 0 32 C0 21.44 0 10.88 0 0 Z " fill="#FC4734" transform="translate(312,136)"/>
<path d="M0 0 C4.29 0 8.58 0 13 0 C11.40431817 5.36729344 9.77125547 10.68623359 8 16 C2.72 16 -2.56 16 -8 16 C-8 13.36 -8 10.72 -8 8 C-5.36 8 -2.72 8 0 8 C0 5.36 0 2.72 0 0 Z " fill="#FFDADB" transform="translate(248,16)"/>
<path d="M0 0 C5.87317278 0.55934979 9.83707173 2.61332053 13.8125 7 C16.49263296 11.51390815 16.08539662 15.87620305 16 21 C13.36 21 10.72 21 8 21 C8 23.64 8 26.28 8 29 C5.36 29 2.72 29 0 29 C0 27.35 0 25.7 0 24 C1.65 23.34 3.3 22.68 5 22 C5 19.03 5 16.06 5 13 C5.99 13 6.98 13 8 13 C8 10.36 8 7.72 8 5 C5.36 5 2.72 5 0 5 C0 3.35 0 1.7 0 0 Z " fill="#AC1717" transform="translate(192,219)"/>
<path d="M0 0 C2.64 0 5.28 0 8 0 C7.42655063 2.86724686 7.1385485 3.8614515 5 6 C4.41654524 8.95746492 4.41654524 8.95746492 5 12 C8.35776151 14.86397305 11.68387036 15.49812446 16 16 C16 18.64 16 21.28 16 24 C13.52076199 24.02685095 11.0418116 24.04676547 8.5625 24.0625 C7.85544922 24.07087891 7.14839844 24.07925781 6.41992188 24.08789062 C4.61306441 24.09653588 2.80612397 24.05220011 1 24 C0 23 0 23 -0.11352539 20.77514648 C-0.10828857 19.81680908 -0.10305176 18.85847168 -0.09765625 17.87109375 C-0.09443359 16.83662109 -0.09121094 15.80214844 -0.08789062 14.73632812 C-0.07951172 13.64771484 -0.07113281 12.55910156 -0.0625 11.4375 C-0.05798828 10.34501953 -0.05347656 9.25253906 -0.04882812 8.12695312 C-0.03699826 5.41791505 -0.02051543 2.70898401 0 0 Z " fill="#E02220" transform="translate(224,152)"/>
<path d="M0 0 C0.66 0.515625 1.32 1.03125 2 1.5625 C2 1.8925 2 2.2225 2 2.5625 C-4.27 2.5625 -10.54 2.5625 -17 2.5625 C-17 11.8025 -17 21.0425 -17 30.5625 C-20.70196942 29.32851019 -21.31217164 27.66823384 -23.1328125 24.3515625 C-25.69157322 19.07267777 -25.59791989 14.48913077 -23.875 8.9375 C-21.26401934 4.23773481 -18.36696207 1.87055799 -13.625 -0.75 C-8.72305355 -2.03384312 -4.61508635 -2.21139555 0 0 Z " fill="#000000" transform="translate(201,109.4375)"/>
<path d="M0 0 C4.95 0 9.9 0 15 0 C16 2 16 2 15.109375 5.15234375 C14.66430579 6.41692663 14.21080324 7.67856519 13.75 8.9375 C13.53214844 9.57107422 13.31429688 10.20464844 13.08984375 10.85742188 C11.88615434 14.20452314 10.81745385 16.75432355 8 19 C8 18.01 8 17.02 8 16 C5.36 16 2.72 16 0 16 C0 10.72 0 5.44 0 0 Z " fill="#AB0E11" transform="translate(328,224)"/>
<path d="M0 0 C0.33 0 0.66 0 1 0 C1 7.26 1 14.52 1 22 C-1.64 22 -4.28 22 -7 22 C-7 34.87 -7 47.74 -7 61 C-7.33 61 -7.66 61 -8 61 C-13.54421076 40.30821342 -10.49004307 18.4624758 0 0 Z " fill="#000000" transform="translate(143,170)"/>
<path d="M0 0 C1.65 0 3.3 0 5 0 C5 7.92 5 15.84 5 24 C2.36 24 -0.28 24 -3 24 C-3 30.27 -3 36.54 -3 43 C-4.98 43.495 -4.98 43.495 -7 44 C-7.49133331 34.75565471 -5.74253052 26.97205296 -3.16796875 18.1484375 C-1.43413623 12.08429421 -0.3962485 6.2989847 0 0 Z " fill="#000000" transform="translate(315,224)"/>
<path d="M0 0 C2.29912101 4.59824202 3.13732958 7.66158855 3.0625 12.75 C3.05347656 13.54921875 3.04445313 14.3484375 3.03515625 15.171875 C3.02355469 15.77515625 3.01195312 16.3784375 3 17 C2.34 17 1.68 17 1 17 C1 14.36 1 11.72 1 9 C-6.92 9 -14.84 9 -23 9 C-23 6.36 -23 3.72 -23 1 C-15.41 0.67 -7.82 0.34 0 0 Z " fill="#E4382F" transform="translate(287,119)"/>
<path d="M0 0 C1.65 0 3.3 0 5 0 C5 18.15 5 36.3 5 55 C3 54 3 54 1.89492798 51.75410461 C0.99472244 48.98375852 0.72612573 46.83510954 0.68115234 43.93432617 C0.66128265 42.95368698 0.64141296 41.97304779 0.62094116 40.96269226 C0.60938995 39.9166835 0.59783875 38.87067474 0.5859375 37.79296875 C0.56657135 36.71243729 0.5472052 35.63190582 0.5272522 34.51863098 C0.46757897 31.0750004 0.42111959 27.63133617 0.375 24.1875 C0.33680899 21.84959498 0.2977566 19.51170385 0.2578125 17.17382812 C0.16188747 11.44934235 0.07680407 5.72477252 0 0 Z " fill="#000000" transform="translate(187,144)"/>
<path d="M0 0 C1.98 0 3.96 0 6 0 C6 2.64 6 5.28 6 8 C3.36 8 0.72 8 -2 8 C-2 10.64 -2 13.28 -2 16 C-4.64 16 -7.28 16 -10 16 C-10 23.26 -10 30.52 -10 38 C-16.15681234 31.84318766 -16.15681234 31.84318766 -16.3125 25.3125 C-16.29198916 19.63099799 -15.31518485 16.55837917 -12 12 C-11.34 12 -10.68 12 -10 12 C-10 11.34 -10 10.68 -10 10 C-5.25645564 7.77343836 -1.27749285 6.53851968 4 6 C2.68 4.02 1.36 2.04 0 0 Z " fill="#000000" transform="translate(234,136)"/>
<path d="M0 0 C0.33 0 0.66 0 1 0 C1 17.49 1 34.98 1 53 C-1.64 53 -4.28 53 -7 53 C-6.35503945 47.44137094 -5.5129556 41.9387196 -4.59082031 36.41967773 C-2.57195601 24.30742485 -1.03884369 12.23375132 0 0 Z " fill="#000000" transform="translate(247,419)"/>
<path d="M0 0 C0 2.64 0 5.28 0 8 C-5.28 8 -10.56 8 -16 8 C-16 10.64 -16 13.28 -16 16 C-23.92 16 -31.84 16 -40 16 C-40 14.35 -40 12.7 -40 11 C-39.278125 11.350625 -38.55625 11.70125 -37.8125 12.0625 C-34.0354357 13.32152143 -31.86466241 12.90032899 -28.29296875 11.17578125 C-26.96043828 10.48916168 -25.62984107 9.79878244 -24.30078125 9.10546875 C-20.8835985 7.46359656 -17.33167951 6.26996272 -13.7578125 5.015625 C-10.34552845 3.75897648 -7.06659218 2.28085708 -3.77734375 0.734375 C-2 0 -2 0 0 0 Z " fill="#000000" transform="translate(272,304)"/>
<path d="M0 0 C2.64 0 5.28 0 8 0 C8 2.64 8 5.28 8 8 C10.64 8 13.28 8 16 8 C16 10.64 16 13.28 16 16 C10.72 16 5.44 16 0 16 C0 10.72 0 5.44 0 0 Z " fill="#8E050B" transform="translate(312,192)"/>
<path d="M0 0 C7.92 0 15.84 0 24 0 C24 2.64 24 5.28 24 8 C16.08 8 8.16 8 0 8 C0 5.36 0 2.72 0 0 Z " fill="#FD5E50" transform="translate(248,88)"/>
<path d="M0 0 C7.92 0 15.84 0 24 0 C24 2.64 24 5.28 24 8 C16.08 8 8.16 8 0 8 C0 5.36 0 2.72 0 0 Z " fill="#FE6554" transform="translate(224,64)"/>
<path d="M0 0 C2.64 0 5.28 0 8 0 C8 7.92 8 15.84 8 24 C5.69 24 3.38 24 1 24 C0 23 0 23 -0.11352539 20.77514648 C-0.10828857 19.81680908 -0.10305176 18.85847168 -0.09765625 17.87109375 C-0.09443359 16.83662109 -0.09121094 15.80214844 -0.08789062 14.73632812 C-0.07951172 13.64771484 -0.07113281 12.55910156 -0.0625 11.4375 C-0.05798828 10.34501953 -0.05347656 9.25253906 -0.04882812 8.12695312 C-0.03699826 5.41791505 -0.02051543 2.70898401 0 0 Z " fill="#8D6649" transform="translate(200,360)"/>
<path d="M0 0 C2.64 0 5.28 0 8 0 C8 2.64 8 5.28 8 8 C13.61 8 19.22 8 25 8 C26.00496852 11.01490557 26.10335303 13.04181692 26.0625 16.1875 C26.05347656 17.08855469 26.04445312 17.98960937 26.03515625 18.91796875 C26.02355469 19.60503906 26.01195312 20.29210937 26 21 C16.90729734 18.37916217 9.20374711 12.04209132 3 5 C3 4.34 3 3.68 3 3 C2.34 3 1.68 3 1 3 C0.67 2.01 0.34 1.02 0 0 Z " fill="#98040E" transform="translate(144,248)"/>
<path d="M0 0 C2.64 0 5.28 0 8 0 C8 3.3 8 6.6 8 10 C7.01 10.495 7.01 10.495 6 11 C5.34310735 12.41418374 4.7472569 13.85713207 4.1875 15.3125 C2.45333962 19.34602859 0.94224204 21.78849837 -3 24 C-5.8125 24.25 -5.8125 24.25 -8 24 C-8 21.36 -8 18.72 -8 16 C-5.36 16 -2.72 16 0 16 C0 10.72 0 5.44 0 0 Z " fill="#C71A1C" transform="translate(296,216)"/>
<path d="M0 0 C7.26 0 14.52 0 22 0 C22.33 2.64 22.66 5.28 23 8 C15.41 8 7.82 8 0 8 C0 5.36 0 2.72 0 0 Z " fill="#F44135" transform="translate(264,112)"/>
<path d="M0 0 C3.63 0 7.26 0 11 0 C11 0.66 11 1.32 11 2 C11.639375 2.309375 12.27875 2.61875 12.9375 2.9375 C15 4 15 4 16 5 C16.07226502 6.85287502 16.0838122 8.70833878 16.0625 10.5625 C16.05347656 11.57441406 16.04445312 12.58632812 16.03515625 13.62890625 C16.02355469 14.41136719 16.01195312 15.19382813 16 16 C13.36 16 10.72 16 8 16 C8 13.36 8 10.72 8 8 C5.36 8 2.72 8 0 8 C0 5.36 0 2.72 0 0 Z " fill="#B52323" transform="translate(168,208)"/>
<path d="M0 0 C2 1 2 1 2.625 2.5625 C3.54897033 8.56830712 3.25756608 13.3560848 1 19 C-1.97 19 -4.94 19 -8 19 C-8.04898438 18.01257813 -8.09796875 17.02515625 -8.1484375 16.0078125 C-8.22320312 14.72648438 -8.29796875 13.44515625 -8.375 12.125 C-8.44460937 10.84882812 -8.51421875 9.57265625 -8.5859375 8.2578125 C-8.67241106 4.91938301 -8.67241106 4.91938301 -11 3 C-7.37 3 -3.74 3 0 3 C0 2.01 0 1.02 0 0 Z " fill="#DD4E42" transform="translate(208,117)"/>
<path d="M0 0 C-0.08854135 1.68839195 -0.19672087 3.37575694 -0.3125 5.0625 C-0.37050781 6.00222656 -0.42851562 6.94195312 -0.48828125 7.91015625 C-1 11 -1 11 -4 18 C-9.28 18 -14.56 18 -20 18 C-20 15.36 -20 12.72 -20 10 C-14.72 10 -9.44 10 -4 10 C-4 7.03 -4 4.06 -4 1 C-2 0 -2 0 0 0 Z " fill="#AA7656" transform="translate(284,350)"/>
<path d="M0 0 C7.59 0 15.18 0 23 0 C22.34 2.97 21.68 5.94 21 9 C14.07 8.67 7.14 8.34 0 8 C0 5.36 0 2.72 0 0 Z " fill="#AB855E" transform="translate(296,296)"/>
<path d="M0 0 C2.64 0 5.28 0 8 0 C7.09205021 5.70711297 7.09205021 5.70711297 6.3125 8.1875 C5.72786063 10.3371308 5.72786063 10.3371308 8 13 C8.1953125 15.69921875 8.1953125 15.69921875 8.125 18.6875 C8.10695313 19.68136719 8.08890625 20.67523438 8.0703125 21.69921875 C8.03550781 22.83810547 8.03550781 22.83810547 8 24 C5.36 24 2.72 24 0 24 C0 16.08 0 8.16 0 0 Z " fill="#BD1918" transform="translate(272,216)"/>
<path d="M0 0 C1.34709162 0.87500817 2.67738986 1.77590933 4 2.6875 C4.7425 3.18636719 5.485 3.68523437 6.25 4.19921875 C8 6 8 6 8.25 8.70703125 C8.1675 9.46371094 8.085 10.22039062 8 11 C10.64 11 13.28 11 16 11 C16 13.64 16 16.28 16 19 C13.46020508 18.49204102 10.98310905 17.99493272 8.5 17.25 C5.16161245 16.91616124 3.67104389 18.09211151 1 20 C0 19 0 19 -0.11352539 17.14233398 C-0.10828857 16.35157471 -0.10305176 15.56081543 -0.09765625 14.74609375 C-0.09443359 13.89208984 -0.09121094 13.03808594 -0.08789062 12.15820312 C-0.07951172 11.26037109 -0.07113281 10.36253906 -0.0625 9.4375 C-0.05798828 8.53580078 -0.05347656 7.63410156 -0.04882812 6.70507812 C-0.03700225 4.46998686 -0.0205222 2.23502563 0 0 Z " fill="#B81713" transform="translate(184,213)"/>
<path d="M0 0 C0.33 0 0.66 0 1 0 C1 27.06 1 54.12 1 82 C-8 87 -8 87 -11.4375 86.375 C-12.283125 85.92125 -13.12875 85.4675 -14 85 C-14.66 84.67 -15.32 84.34 -16 84 C-16 82.68 -16 81.36 -16 80 C-10.72 80 -5.44 80 0 80 C0 53.6 0 27.2 0 0 Z " fill="#610D0E" transform="translate(248,208)"/>
<path d="M0 0 C4.61375332 3.84479444 6.78611116 5.66948337 9.6875 10.4375 C10.27015625 11.39398438 10.8528125 12.35046875 11.453125 13.3359375 C16 21.16666667 16 21.16666667 16 24 C13.36 24 10.72 24 8 24 C8 21.36 8 18.72 8 16 C5.36 16 2.72 16 0 16 C0 10.72 0 5.44 0 0 Z " fill="#FF5348" transform="translate(320,144)"/>
<path d="M0 0 C7.26 2.97 14.52 5.94 22 9 C22 9.33 22 9.66 22 10 C16.72 10 11.44 10 6 10 C6 15.61 6 21.22 6 27 C3.28677697 22.93016546 2.48264111 18.77306805 1.3125 14.0625 C1.07466797 13.15564453 0.83683594 12.24878906 0.59179688 11.31445312 C0.37201172 10.43853516 0.15222656 9.56261719 -0.07421875 8.66015625 C-0.37718872 7.46338257 -0.37718872 7.46338257 -0.6862793 6.24243164 C-1 4 -1 4 0 0 Z " fill="#000000" transform="translate(194,350)"/>
<path d="M0 0 C3.63 0 7.26 0 11 0 C10.85890014 2.10448938 10.71195825 4.2085877 10.5625 6.3125 C10.48128906 7.48425781 10.40007812 8.65601563 10.31640625 9.86328125 C10 13 10 13 9 16 C6.03 16 3.06 16 0 16 C0 10.72 0 5.44 0 0 Z " fill="#D5211B" transform="translate(280,144)"/>
<path d="M0 0 C8.58 0 17.16 0 26 0 C26 2.64 26 5.28 26 8 C28.64 8 31.28 8 34 8 C34 9.32 34 10.64 34 12 C30.49076796 11.37511663 27.28345171 10.46695222 23.9453125 9.22265625 C23.00042969 8.87396484 22.05554688 8.52527344 21.08203125 8.16601562 C20.10621094 7.80185547 19.13039062 7.43769531 18.125 7.0625 C12.12773188 4.83049409 6.18725804 2.64591405 0 1 C0 0.67 0 0.34 0 0 Z " fill="#9D6C48" transform="translate(174,320)"/>
<path d="M0 0 C5.28 0 10.56 0 16 0 C16 2.64 16 5.28 16 8 C13.36 8 10.72 8 8 8 C8 11.3 8 14.6 8 18 C7.67 18 7.34 18 7 18 C6.79375 16.9275 6.5875 15.855 6.375 14.75 C4.7411657 10.29408826 3.08889201 9.22222392 -1 7 C-0.67 4.69 -0.34 2.38 0 0 Z " fill="#740101" transform="translate(168,224)"/>
<path d="M0 0 C2.64 0 5.28 0 8 0 C8.16249454 2.41936317 8.28097817 4.82781859 8.375 7.25 C8.45041016 8.27287109 8.45041016 8.27287109 8.52734375 9.31640625 C8.5859375 11.328125 8.5859375 11.328125 8 15 C3.33333333 19 3.33333333 19 0 19 C0 12.73 0 6.46 0 0 Z " fill="#700707" transform="translate(312,248)"/>
<path d="M0 0 C1.65 0 3.3 0 5 0 C4.88140625 0.60328125 4.7628125 1.2065625 4.640625 1.828125 C4.24804333 4.26213136 3.95239159 6.53301897 4 9 C4.9590625 9.928125 4.9590625 9.928125 5.9375 10.875 C8.62162732 13.64046452 8.27404661 14.96987265 8.25 18.75 C8.18583428 20.50080759 8.10853491 22.25138208 8 24 C6.35 24 4.7 24 3 24 C3 23.01 3 22.02 3 21 C2.01 20.67 1.02 20.34 0 20 C0 13.4 0 6.8 0 0 Z " fill="#F53732" transform="translate(184,120)"/>
<path d="M0 0 C7.59 0 15.18 0 23 0 C23 3.3 23 6.6 23 10 C19.75380655 10 18.24999327 9.36942366 15.33203125 8.03125 C14.43935547 7.62519531 13.54667969 7.21914063 12.62695312 6.80078125 C11.69818359 6.37152344 10.76941406 5.94226563 9.8125 5.5 C8.87212891 5.07074219 7.93175781 4.64148438 6.96289062 4.19921875 C4.63958231 3.13780886 2.31879094 2.07123393 0 1 C0 0.67 0 0.34 0 0 Z " fill="#7F5236" transform="translate(217,336)"/>
<path d="M0 0 C0.33 0 0.66 0 1 0 C1 2.31 1 4.62 1 7 C3.64 7 6.28 7 9 7 C4.375 11.875 4.375 11.875 1 13 C1 13.66 1 14.32 1 15 C-1.64 15 -4.28 15 -7 15 C-7 11.37 -7 7.74 -7 4 C-6.030625 3.525625 -5.06125 3.05125 -4.0625 2.5625 C-1.19522563 1.29806053 -1.19522563 1.29806053 0 0 Z " fill="#F1322A" transform="translate(199,129)"/>
<path d="M0 0 C2.64 0 5.28 0 8 0 C8 2.64 8 5.28 8 8 C5.69 8.33 3.38 8.66 1 9 C0.67 11.31 0.34 13.62 0 16 C-2.64 16 -5.28 16 -8 16 C-8 13.36 -8 10.72 -8 8 C-5.36 8 -2.72 8 0 8 C0 5.36 0 2.72 0 0 Z " fill="#C91C18" transform="translate(152,176)"/>
<path d="M0 0 C5.28 0 10.56 0 16 0 C16 2.64 16 5.28 16 8 C10.72 8 5.44 8 0 8 C0 5.36 0 2.72 0 0 Z " fill="#A50F0E" transform="translate(272,248)"/>
<path d="M0 0 C2.64 0 5.28 0 8 0 C8 5.28 8 10.56 8 16 C5.36 16 2.72 16 0 16 C0 10.72 0 5.44 0 0 Z " fill="#780004" transform="translate(320,232)"/>
<path d="M0 0 C2.64 0 5.28 0 8 0 C8 5.28 8 10.56 8 16 C5.36 16 2.72 16 0 16 C0 10.72 0 5.44 0 0 Z " fill="#D02013" transform="translate(136,192)"/>
<path d="M0 0 C2.64 0 5.28 0 8 0 C8 5.28 8 10.56 8 16 C5.36 16 2.72 16 0 16 C0 10.72 0 5.44 0 0 Z " fill="#EA3228" transform="translate(312,168)"/>
<path d="M0 0 C2.64 0 5.28 0 8 0 C8 5.28 8 10.56 8 16 C5.36 16 2.72 16 0 16 C0 10.72 0 5.44 0 0 Z " fill="#D6281D" transform="translate(248,160)"/>
<path d="M0 0 C5.28 0 10.56 0 16 0 C16 2.64 16 5.28 16 8 C10.72 8 5.44 8 0 8 C0 5.36 0 2.72 0 0 Z " fill="#E32F26" transform="translate(272,128)"/>
<path d="M0 0 C2.64 0 5.28 0 8 0 C8 5.28 8 10.56 8 16 C5.36 16 2.72 16 0 16 C0 10.72 0 5.44 0 0 Z " fill="#A50E13" transform="translate(240,120)"/>
<path d="M0 0 C5.28 0 10.56 0 16 0 C16 2.64 16 5.28 16 8 C10.72 8 5.44 8 0 8 C0 5.36 0 2.72 0 0 Z " fill="#F74436" transform="translate(216,88)"/>
<path d="M0 0 C2.64 0 5.28 0 8 0 C8 5.28 8 10.56 8 16 C5.36 16 2.72 16 0 16 C0 10.72 0 5.44 0 0 Z " fill="#FF9E85" transform="translate(216,56)"/>
<path d="M0 0 C2.64 0 5.28 0 8 0 C8 5.28 8 10.56 8 16 C5.36 16 2.72 16 0 16 C0 10.72 0 5.44 0 0 Z " fill="#FFE0CC" transform="translate(224,40)"/>
<path d="M0 0 C0.78375 0.04125 1.5675 0.0825 2.375 0.125 C3.035 1.445 3.695 2.765 4.375 4.125 C2.065 4.125 -0.245 4.125 -2.625 4.125 C-2.625 6.765 -2.625 9.405 -2.625 12.125 C-5.265 12.125 -7.905 12.125 -10.625 12.125 C-10.625 14.765 -10.625 17.405 -10.625 20.125 C-13.265 20.125 -15.905 20.125 -18.625 20.125 C-17.305 17.815 -15.985 15.505 -14.625 13.125 C-13.965 13.125 -13.305 13.125 -12.625 13.125 C-12.33625 12.526875 -12.0475 11.92875 -11.75 11.3125 C-10.625 9.125 -10.625 9.125 -8.625 6.125 C-7.965 6.125 -7.305 6.125 -6.625 6.125 C-6.191875 5.196875 -6.191875 5.196875 -5.75 4.25 C-4.16515329 1.25640067 -3.47581022 0.16551477 0 0 Z " fill="#000000" transform="translate(162.625,147.875)"/>
<path d="M0 0 C5.28 0 10.56 0 16 0 C16 2.64 16 5.28 16 8 C11.05 8 6.1 8 1 8 C0 6 0 6 0 0 Z " fill="#9C725A" transform="translate(160,296)"/>
<path d="M0 0 C1.98 0 3.96 0 6 0 C6 5.28 6 10.56 6 16 C3.36 16 0.72 16 -2 16 C-2 13.36 -2 10.72 -2 8 C-3.65 8 -5.3 8 -7 8 C-6.360625 7.71125 -5.72125 7.4225 -5.0625 7.125 C-2.84793921 6.17176549 -2.84793921 6.17176549 -2 4 C-1.34 4 -0.68 4 0 4 C0 2.68 0 1.36 0 0 Z " fill="#D72815" transform="translate(242,160)"/>
<path d="M0 0 C5.88009863 1.1380836 11.10511803 2.73542443 16.625 5.046875 C19.70468283 6.28280035 22.7914289 7.16298145 26 8 C26 8.33 26 8.66 26 9 C18.08 9.33 10.16 9.66 2 10 C0 4 0 4 0 0 Z " fill="#4F382A" transform="translate(157,287)"/>
<path d="M0 0 C2.31 0 4.62 0 7 0 C8.74932841 3.49865682 8.56572312 7.18292312 8 11 C6.63580024 13.89694929 5.20685124 15.58786027 3 18 C2.01 18 1.02 18 0 18 C0 12.06 0 6.12 0 0 Z " fill="#C91D15" transform="translate(208,184)"/>
<path d="M0 0 C2.64 0 5.28 0 8 0 C8 9.57 8 19.14 8 29 C5.89777026 25.84665539 5.31517901 23.68721081 4.4921875 20.01953125 C4.22792969 18.85615234 3.96367187 17.69277344 3.69140625 16.49414062 C3.42199219 15.27919922 3.15257812 14.06425781 2.875 12.8125 C2.59785156 11.58595703 2.32070312 10.35941406 2.03515625 9.09570312 C1.35118687 6.0650112 0.67304473 3.0331334 0 0 Z " fill="#000000" transform="translate(216,448)"/>
<path d="M0 0 C6.63680043 -0.61200004 10.99107596 -0.07899547 16.6015625 3.61328125 C17.06304687 4.07089844 17.52453125 4.52851563 18 5 C18 5.99 18 6.98 18 8 C12.06 8 6.12 8 0 8 C0 5.36 0 2.72 0 0 Z " fill="#976242" transform="translate(208,360)"/>
<path d="M0 0 C1.65 0 3.3 0 5 0 C5 2.64 5 5.28 5 8 C2.36 8 -0.28 8 -3 8 C-3 10.64 -3 13.28 -3 16 C-5.64 16 -8.28 16 -11 16 C-11 13.03 -11 10.06 -11 7 C-9.906875 7.0825 -8.81375 7.165 -7.6875 7.25 C-4.00924962 7.39873002 -4.00924962 7.39873002 -2.125 5.1875 C-0.88860105 2.92023801 -0.88860105 2.92023801 0 0 Z " fill="#A81E1B" transform="translate(291,224)"/>
<path d="M0 0 C2.64 0 5.28 0 8 0 C8 6.6 8 13.2 8 20 C6.68 19.67 5.36 19.34 4 19 C3.32713788 16.58490559 2.66153988 14.16819644 2 11.75 C1.71382812 10.72712891 1.71382812 10.72712891 1.421875 9.68359375 C0.50042956 6.29399088 0 3.54221024 0 0 Z " fill="#584736" transform="translate(224,480)"/>
<path d="M0 0 C1.93559313 -0.13504138 3.873872 -0.23201129 5.8125 -0.3125 C6.89144531 -0.37050781 7.97039062 -0.42851563 9.08203125 -0.48828125 C12 0 12 0 13.82421875 2.33203125 C15 5 15 5 16 8 C10.72 8 5.44 8 0 8 C0 5.36 0 2.72 0 0 Z " fill="#FE8A79" transform="translate(248,64)"/>
<path d="M0 0 C2.31 0 4.62 0 7 0 C7 9.57 7 19.14 7 29 C6.67 29 6.34 29 6 29 C5.18020333 25.6684186 4.37051582 22.33445648 3.5625 19 C3.33240234 18.06542969 3.10230469 17.13085938 2.86523438 16.16796875 C1.56512645 10.77911562 0.56585609 5.51547082 0 0 Z " fill="#000000" transform="translate(209,416)"/>
<path d="M0 0 C5.84615385 2.92307692 5.84615385 2.92307692 8 6 C8.3380398 9.35927054 8.23112958 12.63578059 8 16 C5.36 16 2.72 16 0 16 C0 10.72 0 5.44 0 0 Z " fill="#FF5D55" transform="translate(312,136)"/>
<path d="M0 0 C4.29 0 8.58 0 13 0 C10.25 9.75 10.25 9.75 8 12 C8 10.68 8 9.36 8 8 C5.36 8 2.72 8 0 8 C0 5.36 0 2.72 0 0 Z " fill="#F6F8FC" transform="translate(248,16)"/>
<path d="M0 0 C2.31 0 4.62 0 7 0 C7 8.91 7 17.82 7 27 C5.39985198 23.79970396 4.51016172 21.4840965 3.7109375 18.0859375 C3.49179688 17.16039062 3.27265625 16.23484375 3.046875 15.28125 C2.82515625 14.3221875 2.6034375 13.363125 2.375 12.375 C2.14554688 11.40820312 1.91609375 10.44140625 1.6796875 9.4453125 C0 2.28664435 0 2.28664435 0 0 Z " fill="#000000" transform="translate(201,384)"/>
<path d="M0 0 C1.32 0 2.64 0 4 0 C4.67184618 2.10251861 5.33730968 4.20707763 6 6.3125 C6.37125 7.48425781 6.7425 8.65601563 7.125 9.86328125 C8 13 8 13 8 16 C5.36 16 2.72 16 0 16 C0 10.72 0 5.44 0 0 Z " fill="#DD231E" transform="translate(336,176)"/>
<path d="M0 0 C3.44216672 2.6598561 3.99504674 5.90288286 5 10 C0.71 10 -3.58 10 -8 10 C-8 7.36 -8 4.72 -8 2 C-5.36 2 -2.72 2 0 2 C0 1.34 0 0.68 0 0 Z " fill="#FB4844" transform="translate(280,102)"/>
<path d="M0 0 C1.65 0 3.3 0 5 0 C5 6.6 5 13.2 5 20 C2.525 19.01 2.525 19.01 0 18 C0 12.06 0 6.12 0 0 Z " fill="#000000" transform="translate(187,256)"/>
<path d="M0 0 C0 5.28 0 10.56 0 16 C-2.64 16 -5.28 16 -8 16 C-8.49074564 8.76150185 -8.49074564 8.76150185 -6.1875 5.1875 C-5.465625 4.465625 -4.74375 3.74375 -4 3 C-3.443125 2.401875 -2.88625 1.80375 -2.3125 1.1875 C-1 0 -1 0 0 0 Z " fill="#8E1A21" transform="translate(296,192)"/>
<path d="M0 0 C7.08849683 2.12871018 14.10774203 4.29715374 21 7 C21 7.33 21 7.66 21 8 C14.07 8 7.14 8 0 8 C0 5.36 0 2.72 0 0 Z " fill="#806355" transform="translate(184,296)"/>
<path d="M0 0 C2.45823172 3.68734758 3.01242616 6.69699971 4 11 C0.04 11 -3.92 11 -8 11 C-8 8.36 -8 5.72 -8 3 C-5.36 3 -2.72 3 0 3 C0 2.01 0 1.02 0 0 Z " fill="#FFA18E" transform="translate(256,53)"/>
<path d="M0 0 C1.32 0 2.64 0 4 0 C5.32 5.28 6.64 10.56 8 16 C5.36 16 2.72 16 0 16 C0 10.72 0 5.44 0 0 Z " fill="#E53023" transform="translate(160,176)"/>
<path d="M0 0 C-0.57584432 2.38564077 -1.22227595 4.66682784 -2 7 C-6.62 7 -11.24 7 -16 7 C-11.46320346 1.32900433 -11.46320346 1.32900433 -8 0.125 C-7.34 -0.11992187 -6.68 -0.36484375 -6 -0.6171875 C-3.69057943 -1.05922503 -2.21563994 -0.72206123 0 0 Z " fill="#000000" transform="translate(264,9)"/>
<path d="M0 0 C2.64 0 5.28 0 8 0 C8 3.63 8 7.26 8 11 C5.36 11 2.72 11 0 11 C0 7.37 0 3.74 0 0 Z " fill="#E25951" transform="translate(232,144)"/>
<path d="M0 0 C2.64 0 5.28 0 8 0 C7.62422289 6.13769283 5.9580593 9.26963644 2 14 C1.34 14 0.68 14 0 14 C0 9.38 0 4.76 0 0 Z " fill="#A10908" transform="translate(328,240)"/>
<path d="M0 0 C5.68154235 -0.45452339 8.60036521 0.33363768 13 4 C13.33 4.99 13.66 5.98 14 7 C9.38 7 4.76 7 0 7 C0 4.69 0 2.38 0 0 Z " fill="#000000" transform="translate(200,177)"/>
<path d="M0 0 C1.65 0 3.3 0 5 0 C5 2.64 5 5.28 5 8 C7.64 8 10.28 8 13 8 C13 10.64 13 13.28 13 16 C9.92499793 15.68153629 8.4151319 15.44511885 6.26953125 13.14453125 C3.59312092 8.86083965 1.26906093 4.94933762 0 0 Z " fill="#AA2E2C" transform="translate(219,112)"/>
<path d="M0 0 C6 9 6 9 6 12 C6.66 12 7.32 12 8 12 C8.66 13.32 9.32 14.64 10 16 C6.7 16 3.4 16 0 16 C0 10.72 0 5.44 0 0 Z " fill="#BE1B14" transform="translate(168,192)"/>
<path d="M0 0 C3.63 0 7.26 0 11 0 C9.8440727 4.6237092 8.92583175 5.50174343 5 8 C2.1875 8.25 2.1875 8.25 0 8 C0 5.36 0 2.72 0 0 Z " fill="#BB1910" transform="translate(288,232)"/>
<path d="M0 0 C0.99 0 1.98 0 3 0 C3 5.28 3 10.56 3 16 C0.36 16 -2.28 16 -5 16 C-5 14.35 -5 12.7 -5 11 C-3.35 10.34 -1.7 9.68 0 9 C0 6.03 0 3.06 0 0 Z " fill="#000000" transform="translate(197,232)"/>
<path d="M0 0 C2.64 0 5.28 0 8 0 C8 4.95 8 9.9 8 15 C4.38350865 12.58900577 3.89369009 10.92133929 2.3125 6.9375 C1.87550781 5.85339844 1.43851563 4.76929688 0.98828125 3.65234375 C0 1 0 1 0 0 Z " fill="#4B0000" transform="translate(136,232)"/>
<path d="M0 0 C3.63 0 7.26 0 11 0 C11 2.64 11 5.28 11 8 C8.36 8 5.72 8 3 8 C2.814375 6.576875 2.814375 6.576875 2.625 5.125 C2.28312823 1.91332809 2.28312823 1.91332809 0 0 Z " fill="#E55143" transform="translate(197,120)"/>
<path d="M0 0 C4.52554745 4.52554745 4.52554745 4.52554745 6.25 8.125 C6.58515625 8.80820313 6.9203125 9.49140625 7.265625 10.1953125 C8 12 8 12 8 14 C5.36 14 2.72 14 0 14 C0 9.38 0 4.76 0 0 Z " fill="#C23B2F" transform="translate(328,154)"/>
<path d="M0 0 C2.64 0 5.28 0 8 0 C8 2.97 8 5.94 8 9 C5.36 8.67 2.72 8.34 0 8 C0 5.36 0 2.72 0 0 Z " fill="#A91211" transform="translate(200,240)"/>
<path d="M0 0 C2.64 0 5.28 0 8 0 C8 2.64 8 5.28 8 8 C5.36 8 2.72 8 0 8 C0 5.36 0 2.72 0 0 Z " fill="#654E3D" transform="translate(240,472)"/>
<path d="M0 0 C2.64 0 5.28 0 8 0 C8 2.64 8 5.28 8 8 C5.36 8 2.72 8 0 8 C0 5.36 0 2.72 0 0 Z " fill="#744E37" transform="translate(216,440)"/>
<path d="M0 0 C2.64 0 5.28 0 8 0 C8 2.64 8 5.28 8 8 C5.36 8 2.72 8 0 8 C0 5.36 0 2.72 0 0 Z " fill="#775742" transform="translate(248,416)"/>
<path d="M0 0 C2.64 0 5.28 0 8 0 C8 2.64 8 5.28 8 8 C5.36 8 2.72 8 0 8 C0 5.36 0 2.72 0 0 Z " fill="#895A3E" transform="translate(216,384)"/>
<path d="M0 0 C2.64 0 5.28 0 8 0 C8 2.64 8 5.28 8 8 C5.36 8 2.72 8 0 8 C0 5.36 0 2.72 0 0 Z " fill="#94684B" transform="translate(200,360)"/>
<path d="M0 0 C5.46737191 1.74807129 10.75824848 3.65794081 16 6 C16 6.33 16 6.66 16 7 C10.72 7 5.44 7 0 7 C0 4.69 0 2.38 0 0 Z " fill="#000000" transform="translate(208,305)"/>
<path d="M0 0 C2.64 0 5.28 0 8 0 C8 2.64 8 5.28 8 8 C5.36 8 2.72 8 0 8 C0 5.36 0 2.72 0 0 Z " fill="#AE907B" transform="translate(272,304)"/>
<path d="M0 0 C1.98 0 3.96 0 6 0 C6 4.62 6 9.24 6 14 C4.68 13.34 3.36 12.68 2 12 C1.171875 9.1796875 1.171875 9.1796875 0.75 5.875 C0.60046875 4.77929688 0.4509375 3.68359375 0.296875 2.5546875 C0.19890625 1.71164062 0.1009375 0.86859375 0 0 Z " fill="#000000" transform="translate(162,304)"/>
<path d="M0 0 C2.64 0 5.28 0 8 0 C8 2.64 8 5.28 8 8 C5.36 8 2.72 8 0 8 C0 5.36 0 2.72 0 0 Z " fill="#B18A69" transform="translate(296,296)"/>
<path d="M0 0 C2.64 0 5.28 0 8 0 C8 2.64 8 5.28 8 8 C5.36 8 2.72 8 0 8 C0 5.36 0 2.72 0 0 Z " fill="#69050F" transform="translate(312,248)"/>
<path d="M0 0 C2.64 0 5.28 0 8 0 C8 2.64 8 5.28 8 8 C5.36 8 2.72 8 0 8 C0 5.36 0 2.72 0 0 Z " fill="#9D0709" transform="translate(152,248)"/>
<path d="M0 0 C2.64 0 5.28 0 8 0 C8 2.64 8 5.28 8 8 C5.36 8 2.72 8 0 8 C0 5.36 0 2.72 0 0 Z " fill="#A81213" transform="translate(176,232)"/>
<path d="M0 0 C2.64 0 5.28 0 8 0 C8 2.64 8 5.28 8 8 C5.36 8 2.72 8 0 8 C0 5.36 0 2.72 0 0 Z " fill="#800004" transform="translate(176,224)"/>
<path d="M0 0 C2.64 0 5.28 0 8 0 C8 2.64 8 5.28 8 8 C5.36 8 2.72 8 0 8 C0 5.36 0 2.72 0 0 Z " fill="#AA1318" transform="translate(152,224)"/>
<path d="M0 0 C2.64 0 5.28 0 8 0 C8 2.64 8 5.28 8 8 C5.36 8 2.72 8 0 8 C0 5.36 0 2.72 0 0 Z " fill="#B31B1D" transform="translate(136,224)"/>
<path d="M0 0 C2.64 0 5.28 0 8 0 C8 2.64 8 5.28 8 8 C5.36 8 2.72 8 0 8 C0 5.36 0 2.72 0 0 Z " fill="#BC2416" transform="translate(280,208)"/>
<path d="M0 0 C2.64 0 5.28 0 8 0 C8 2.64 8 5.28 8 8 C5.36 8 2.72 8 0 8 C0 5.36 0 2.72 0 0 Z " fill="#AD1718" transform="translate(168,208)"/>
<path d="M0 0 C2.64 0 5.28 0 8 0 C8 2.64 8 5.28 8 8 C5.36 8 2.72 8 0 8 C0 5.36 0 2.72 0 0 Z " fill="#880002" transform="translate(160,208)"/>
<path d="M0 0 C2.64 0 5.28 0 8 0 C8 2.64 8 5.28 8 8 C5.36 8 2.72 8 0 8 C0 5.36 0 2.72 0 0 Z " fill="#9B0205" transform="translate(320,200)"/>
<path d="M0 0 C2.64 0 5.28 0 8 0 C8 2.64 8 5.28 8 8 C5.36 8 2.72 8 0 8 C0 5.36 0 2.72 0 0 Z " fill="#D31E17" transform="translate(296,200)"/>
<path d="M0 0 C2.64 0 5.28 0 8 0 C8 2.64 8 5.28 8 8 C5.36 8 2.72 8 0 8 C0 5.36 0 2.72 0 0 Z " fill="#BA3B31" transform="translate(296,192)"/>
<path d="M0 0 C2.64 0 5.28 0 8 0 C8 2.64 8 5.28 8 8 C5.36 8 2.72 8 0 8 C0 5.36 0 2.72 0 0 Z " fill="#D31D19" transform="translate(160,192)"/>
<path d="M0 0 C2.64 0 5.28 0 8 0 C8 2.64 8 5.28 8 8 C5.36 8 2.72 8 0 8 C0 5.36 0 2.72 0 0 Z " fill="#D6292D" transform="translate(136,192)"/>
<path d="M0 0 C2.64 0 5.28 0 8 0 C8 2.64 8 5.28 8 8 C5.36 8 2.72 8 0 8 C0 5.36 0 2.72 0 0 Z " fill="#D5221D" transform="translate(144,184)"/>
<path d="M0 0 C2.64 0 5.28 0 8 0 C8 2.64 8 5.28 8 8 C5.36 8 2.72 8 0 8 C0 5.36 0 2.72 0 0 Z " fill="#7E050C" transform="translate(256,176)"/>
<path d="M0 0 C2.64 0 5.28 0 8 0 C8 2.64 8 5.28 8 8 C5.36 8 2.72 8 0 8 C0 5.36 0 2.72 0 0 Z " fill="#EC3B31" transform="translate(312,168)"/>
<path d="M0 0 C2.64 0 5.28 0 8 0 C8 2.64 8 5.28 8 8 C5.36 8 2.72 8 0 8 C0 5.36 0 2.72 0 0 Z " fill="#D33737" transform="translate(232,168)"/>
<path d="M0 0 C2.64 0 5.28 0 8 0 C8 2.64 8 5.28 8 8 C5.36 8 2.72 8 0 8 C0 5.36 0 2.72 0 0 Z " fill="#851F1F" transform="translate(144,168)"/>
<path d="M0 0 C2.64 0 5.28 0 8 0 C8 2.64 8 5.28 8 8 C5.36 8 2.72 8 0 8 C0 5.36 0 2.72 0 0 Z " fill="#DD2326" transform="translate(320,160)"/>
<path d="M0 0 C2.64 0 5.28 0 8 0 C8 2.64 8 5.28 8 8 C5.36 8 2.72 8 0 8 C0 5.36 0 2.72 0 0 Z " fill="#A31111" transform="translate(264,160)"/>
<path d="M0 0 C2.64 0 5.28 0 8 0 C8 2.64 8 5.28 8 8 C5.36 8 2.72 8 0 8 C0 5.36 0 2.72 0 0 Z " fill="#DE2B24" transform="translate(248,160)"/>
<path d="M0 0 C2.64 0 5.28 0 8 0 C8 2.64 8 5.28 8 8 C5.36 8 2.72 8 0 8 C0 5.36 0 2.72 0 0 Z " fill="#FE4E41" transform="translate(312,152)"/>
<path d="M0 0 C2.64 0 5.28 0 8 0 C8 2.64 8 5.28 8 8 C5.36 8 2.72 8 0 8 C0 5.36 0 2.72 0 0 Z " fill="#8A090D" transform="translate(256,152)"/>
<path d="M0 0 C2.64 0 5.28 0 8 0 C8 2.64 8 5.28 8 8 C5.36 8 2.72 8 0 8 C0 5.36 0 2.72 0 0 Z " fill="#9A0106" transform="translate(256,144)"/>
<path d="M0 0 C2.64 0 5.28 0 8 0 C8 2.64 8 5.28 8 8 C5.36 8 2.72 8 0 8 C0 5.36 0 2.72 0 0 Z " fill="#B31313" transform="translate(240,144)"/>
<path d="M0 0 C2.64 0 5.28 0 8 0 C8 2.64 8 5.28 8 8 C5.36 8 2.72 8 0 8 C0 5.36 0 2.72 0 0 Z " fill="#E22D1C" transform="translate(192,144)"/>
<path d="M0 0 C2.64 0 5.28 0 8 0 C8 2.64 8 5.28 8 8 C5.36 8 2.72 8 0 8 C0 5.36 0 2.72 0 0 Z " fill="#B61210" transform="translate(240,120)"/>
<path d="M0 0 C2.64 0 5.28 0 8 0 C8 2.64 8 5.28 8 8 C5.36 8 2.72 8 0 8 C0 5.36 0 2.72 0 0 Z " fill="#BB1A10" transform="translate(232,112)"/>
<path d="M0 0 C2.64 0 5.28 0 8 0 C8 2.64 8 5.28 8 8 C5.36 8 2.72 8 0 8 C0 5.36 0 2.72 0 0 Z " fill="#E62D23" transform="translate(224,112)"/>
<path d="M0 0 C2.64 0 5.28 0 8 0 C8 2.64 8 5.28 8 8 C5.36 8 2.72 8 0 8 C0 5.36 0 2.72 0 0 Z " fill="#E6312A" transform="translate(232,104)"/>
<path d="M0 0 C2.64 0 5.28 0 8 0 C8 2.64 8 5.28 8 8 C5.36 8 2.72 8 0 8 C0 5.36 0 2.72 0 0 Z " fill="#E0332D" transform="translate(240,88)"/>
<path d="M0 0 C2.64 0 5.28 0 8 0 C8 2.64 8 5.28 8 8 C5.36 8 2.72 8 0 8 C0 5.36 0 2.72 0 0 Z " fill="#EF443C" transform="translate(240,80)"/>
<path d="M0 0 C2.64 0 5.28 0 8 0 C8 2.64 8 5.28 8 8 C5.36 8 2.72 8 0 8 C0 5.36 0 2.72 0 0 Z " fill="#F45F49" transform="translate(216,72)"/>
<path d="M0 0 C2.64 0 5.28 0 8 0 C8 2.64 8 5.28 8 8 C5.36 8 2.72 8 0 8 C0 5.36 0 2.72 0 0 Z " fill="#F46859" transform="translate(240,64)"/>
<path d="M0 0 C2.64 0 5.28 0 8 0 C8 2.64 8 5.28 8 8 C5.36 8 2.72 8 0 8 C0 5.36 0 2.72 0 0 Z " fill="#FFA593" transform="translate(216,56)"/>
<path d="M0 0 C2.64 0 5.28 0 8 0 C8 2.64 8 5.28 8 8 C5.36 8 2.72 8 0 8 C0 5.36 0 2.72 0 0 Z " fill="#FEB39B" transform="translate(248,48)"/>
<path d="M0 0 C2.64 0 5.28 0 8 0 C8 2.64 8 5.28 8 8 C5.36 8 2.72 8 0 8 C0 5.36 0 2.72 0 0 Z " fill="#6A5555" transform="translate(216,48)"/>
<path d="M0 0 C2.64 0 5.28 0 8 0 C8 2.64 8 5.28 8 8 C5.36 8 2.72 8 0 8 C0 5.36 0 2.72 0 0 Z " fill="#FF928A" transform="translate(240,40)"/>
<path d="M0 0 C2.64 0 5.28 0 8 0 C8 2.64 8 5.28 8 8 C5.36 8 2.72 8 0 8 C0 5.36 0 2.72 0 0 Z " fill="#FEBEB5" transform="translate(232,40)"/>
<path d="M0 0 C2.64 0 5.28 0 8 0 C8 2.64 8 5.28 8 8 C5.36 8 2.72 8 0 8 C0 5.36 0 2.72 0 0 Z " fill="#E5E6E1" transform="translate(224,40)"/>
<path d="M0 0 C2.64 0 5.28 0 8 0 C8 2.64 8 5.28 8 8 C5.36 8 2.72 8 0 8 C0 5.36 0 2.72 0 0 Z " fill="#ED9F97" transform="translate(248,32)"/>
<path d="M0 0 C2.64 0 5.28 0 8 0 C8 2.64 8 5.28 8 8 C5.36 8 2.72 8 0 8 C0 5.36 0 2.72 0 0 Z " fill="#E6EAEB" transform="translate(232,32)"/>
<path d="M0 0 C2.64 0 5.28 0 8 0 C8 2.64 8 5.28 8 8 C5.36 8 2.72 8 0 8 C0 5.36 0 2.72 0 0 Z " fill="#E5ECF2" transform="translate(240,24)"/>
<path d="M0 0 C2.64 0 5.28 0 8 0 C8 2.64 8 5.28 8 8 C5.66705225 8.04241723 3.33297433 8.04092937 1 8 C0 7 0 7 -0.0625 3.4375 C-0.041875 2.303125 -0.02125 1.16875 0 0 Z " fill="#825D50" transform="translate(200,376)"/>
<path d="M0 0 C3.3 0 6.6 0 10 0 C9.6875 2.375 9.6875 2.375 9 5 C5.5647952 7.29013653 4.014669 7.17842973 0 7 C0 4.69 0 2.38 0 0 Z " fill="#B78162" transform="translate(304,312)"/>
<path d="M0 0 C2.64 0 5.28 0 8 0 C8 3.96 8 7.92 8 12 C4.30503671 10.76834557 3.64604055 9.11775079 1.8515625 5.7890625 C0.94579063 3.8861106 0.33346356 2.08414724 0 0 Z " fill="#440000" transform="translate(176,128)"/>
<path d="M0 0 C2.64 0 5.28 0 8 0 C8.04241723 2.33294775 8.04092937 4.66702567 8 7 C7 8 7 8 3.4375 8.0625 C2.303125 8.041875 1.16875 8.02125 0 8 C0 5.36 0 2.72 0 0 Z " fill="#E16656" transform="translate(184,112)"/>
<path d="M0 0 C2.64 0 5.28 0 8 0 C8 2.64 8 5.28 8 8 C5.69 8 3.38 8 1 8 C-0.35439668 5.29120665 -0.06501451 2.99066732 0 0 Z " fill="#785039" transform="translate(208,408)"/>
<path d="M0 0 C2.64 0 5.28 0 8 0 C8 2.64 8 5.28 8 8 C5.69 8 3.38 8 1 8 C-0.35439668 5.29120665 -0.06501451 2.99066732 0 0 Z " fill="#AB7E67" transform="translate(160,296)"/>
<path d="M0 0 C1.98 0 3.96 0 6 0 C6 2.64 6 5.28 6 8 C1.71 8 -2.58 8 -7 8 C-5.68 7.34 -4.36 6.68 -3 6 C-2.67 5.34 -2.34 4.68 -2 4 C-1.34 4 -0.68 4 0 4 C0 2.68 0 1.36 0 0 Z " fill="#000000" transform="translate(242,160)"/>
<path d="M0 0 C2.64 0 5.28 0 8 0 C7.49942848 4.38000076 6.06806466 6.84169815 3 10 C2.01 10 1.02 10 0 10 C0 6.7 0 3.4 0 0 Z " fill="#C62224" transform="translate(208,192)"/>
<path d="M0 0 C2.64 0 5.28 0 8 0 C7.125 6.875 7.125 6.875 6 8 C4.00041636 8.04080783 1.99954746 8.04254356 0 8 C0 5.36 0 2.72 0 0 Z " fill="#81543B" transform="translate(248,472)"/>
<path d="M0 0 C3.85645478 1.13940709 7.06505829 2.17794066 10 5 C10 5.99 10 6.98 10 8 C6.7 8 3.4 8 0 8 C0 5.36 0 2.72 0 0 Z " fill="#4D3529" transform="translate(216,360)"/>
<path d="M0 0 C2.64 0 5.28 0 8 0 C8 2.64 8 5.28 8 8 C6.02 8 4.04 8 2 8 C0.23537317 4.91190305 0 3.76687864 0 0 Z " fill="#F63528" transform="translate(240,152)"/>
<path d="M0 0 C1.98 0 3.96 0 6 0 C6 3.96 6 7.92 6 12 C4.68 11.67 3.36 11.34 2 11 C1.664061 9.5422647 1.33133376 8.08378894 1 6.625 C0.814375 5.81289063 0.62875 5.00078125 0.4375 4.1640625 C0 2 0 2 0 0 Z " fill="#000000" transform="translate(226,488)"/>
<path d="M0 0 C2.3125 -0.25 2.3125 -0.25 5 0 C6.8125 1.75 6.8125 1.75 8 4 C8 5.32 8 6.64 8 8 C5.36 8 2.72 8 0 8 C0 5.36 0 2.72 0 0 Z " fill="#F25B55" transform="translate(200,112)"/>
<path d="M0 0 C2.64 0 5.28 0 8 0 C8 2.64 8 5.28 8 8 C6.02 8 4.04 8 2 8 C0.23537317 4.91190305 0 3.76687864 0 0 Z " fill="#E64F4E" transform="translate(216,104)"/>
<path d="M0 0 C2.64 0 5.28 0 8 0 C8 2.64 8 5.28 8 8 C5.6875 8.3125 5.6875 8.3125 3 8 C0.75756777 5.13896577 0 3.65923696 0 0 Z " fill="#A0201C" transform="translate(176,240)"/>
<path d="M0 0 C2.92879371 0.62759865 5.36095629 1.58622659 8 3 C8 4.65 8 6.3 8 8 C5.36 8 2.72 8 0 8 C0 5.36 0 2.72 0 0 Z " fill="#8A7461" transform="translate(224,312)"/>
<path d="M0 0 C1.65 0 3.3 0 5 0 C5 2.64 5 5.28 5 8 C2.03 8 -0.94 8 -4 8 C-2.68 5.36 -1.36 2.72 0 0 Z " fill="#000000" transform="translate(291,224)"/>
<path d="M0 0 C0.66 0 1.32 0 2 0 C2 2.64 2 5.28 2 8 C-0.64 8 -3.28 8 -6 8 C-6 6.02 -6 4.04 -6 2 C-4.7934375 1.7834375 -4.7934375 1.7834375 -3.5625 1.5625 C-1.07896294 1.25864751 -1.07896294 1.25864751 0 0 Z " fill="#000000" transform="translate(206,192)"/>
<path d="M0 0 C2.64 0 5.28 0 8 0 C7.40339753 3.34097385 6.36924875 5.54300129 4 8 C2.68 8 1.36 8 0 8 C0 5.36 0 2.72 0 0 Z " fill="#E12E22" transform="translate(224,152)"/>
<path d="M0 0 C2.64 0 5.28 0 8 0 C8 2.31 8 4.62 8 7 C2.25 6.125 2.25 6.125 0 5 C0 3.35 0 1.7 0 0 Z " fill="#79461E" transform="translate(232,496)"/>
<path d="M0 0 C0.99 0 1.98 0 3 0 C3 0.66 3 1.32 3 2 C3.639375 2.2475 4.27875 2.495 4.9375 2.75 C7 4 7 4 7.75 6.125 C7.8325 6.74375 7.915 7.3625 8 8 C5.36 8 2.72 8 0 8 C0 5.36 0 2.72 0 0 Z " fill="#B22F2B" transform="translate(176,208)"/>
<path d="M0 0 C4.95 0 9.9 0 15 0 C15.33 0.99 15.66 1.98 16 3 C11.09357516 4.63547495 7.31822976 4.57522753 2.5625 2.5 C1.716875 2.005 0.87125 1.51 0 1 C0 0.67 0 0.34 0 0 Z " fill="#BA1A0F" transform="translate(193,200)"/>
<path d="M0 0 C4.95 1.65 9.9 3.3 15 5 C15 5.33 15 5.66 15 6 C10.05 6 5.1 6 0 6 C0 4.02 0 2.04 0 0 Z " fill="#000000" transform="translate(168,290)"/>
<path d="M0 0 C2.31 0 4.62 0 7 0 C6.34 2.64 5.68 5.28 5 8 C3.35 8 1.7 8 0 8 C0 5.36 0 2.72 0 0 Z " fill="#F04042" transform="translate(160,152)"/>
<path d="M0 0 C2.31 0 4.62 0 7 0 C6.34 2.97 5.68 5.94 5 9 C3.35 8.67 1.7 8.34 0 8 C0 5.36 0 2.72 0 0 Z " fill="#B38069" transform="translate(312,296)"/>
<path d="M0 0 C2.31 0 4.62 0 7 0 C7 2.64 7 5.28 7 8 C5.35 8 3.7 8 2 8 C1.34 5.36 0.68 2.72 0 0 Z " fill="#54060A" transform="translate(313,216)"/>
<path d="M0 0 C1.32 0 2.64 0 4 0 C4.2475 0.763125 4.495 1.52625 4.75 2.3125 C5.95624543 5.45920328 5.95624543 5.45920328 10 8 C6.7 8 3.4 8 0 8 C0 5.36 0 2.72 0 0 Z " fill="#D02818" transform="translate(224,160)"/>
<path d="M0 0 C2.64 0 5.28 0 8 0 C8 2.97 8 5.94 8 9 C6.2925002 7.71937515 4.62626404 6.38232443 3 5 C3 4.34 3 3.68 3 3 C2.34 3 1.68 3 1 3 C0.67 2.01 0.34 1.02 0 0 Z " fill="#4B0000" transform="translate(144,248)"/>
<path d="M0 0 C2.20914 3.31371 2.22481553 4.3446021 2.125 8.1875 C2.10695312 9.08855469 2.08890625 9.98960937 2.0703125 10.91796875 C2.03550781 11.94857422 2.03550781 11.94857422 2 13 C-1.77545388 11.90931332 -4.47043472 11.0916909 -7 8 C-4.69 8 -2.38 8 0 8 C0 5.36 0 2.72 0 0 Z " fill="#680507" transform="translate(168,256)"/>
<path d="M0 0 C3.36179774 1.44077046 5.59156268 3.24750021 8 6 C8 6.66 8 7.32 8 8 C5.36 8 2.72 8 0 8 C0 5.36 0 2.72 0 0 Z " fill="#CA6873" transform="translate(312,136)"/>
<path d="M0 0 C1.32 0 2.64 0 4 0 C5.25664978 2.90600261 6 4.79604584 6 8 C4.02 8 2.04 8 0 8 C0 5.36 0 2.72 0 0 Z " fill="#F8302B" transform="translate(336,176)"/>
<path d="M0 0 C4.37113496 0.50827151 7.38995662 1.45173408 11 4 C11 4.33 11 4.66 11 5 C7.37 5 3.74 5 0 5 C0 3.35 0 1.7 0 0 Z " fill="#000000" transform="translate(192,219)"/>
<path d="M0 0 C1.60597325 0.45196245 3.20972508 0.91182327 4.8125 1.375 C6.15248047 1.75785156 6.15248047 1.75785156 7.51953125 2.1484375 C10 3 10 3 13 5 C8.71 5 4.42 5 0 5 C0 3.35 0 1.7 0 0 Z " fill="#000000" transform="translate(192,299)"/>
<path d="M0 0 C2.64 0 5.28 0 8 0 C8 2.31 8 4.62 8 7 C5.05043472 5.63055898 2.47531189 4.12169591 0 2 C0 1.34 0 0.68 0 0 Z " fill="#801C20" transform="translate(152,256)"/>
<path d="M0 0 C2.64 0 5.28 0 8 0 C7.04578192 1.14926266 6.08647955 2.29430541 5.125 3.4375 C4.59132813 4.07558594 4.05765625 4.71367187 3.5078125 5.37109375 C2 7 2 7 0 8 C0 5.36 0 2.72 0 0 Z " fill="#B71706" transform="translate(272,176)"/>
<path d="M0 0 C-0.33 3.63 -0.66 7.26 -1 11 C-1.99 10.67 -2.98 10.34 -4 10 C-4 7.03 -4 4.06 -4 1 C-2 0 -2 0 0 0 Z " fill="#967D56" transform="translate(284,350)"/>
<path d="M0 0 C1.32 0 2.64 0 4 0 C4.33 2.64 4.66 5.28 5 8 C3.35 8 1.7 8 0 8 C0 5.36 0 2.72 0 0 Z " fill="#EF322E" transform="translate(160,176)"/>
<path d="M0 0 C0.33 0 0.66 0 1 0 C1 2.31 1 4.62 1 7 C-1.64 7 -4.28 7 -7 7 C-7 6.01 -7 5.02 -7 4 C-6.030625 3.525625 -5.06125 3.05125 -4.0625 2.5625 C-1.19522563 1.29806053 -1.19522563 1.29806053 0 0 Z " fill="#000000" transform="translate(199,129)"/>
<path d="M0 0 C2.64 0 5.28 0 8 0 C8 2.64 8 5.28 8 8 C7.34 8 6.68 8 6 8 C5.67 6.68 5.34 5.36 5 4 C3.35 3.67 1.7 3.34 0 3 C0 2.01 0 1.02 0 0 Z " fill="#DC171B" transform="translate(200,184)"/>
<path d="M0 0 C5.875 4.625 5.875 4.625 7 8 C4.69 8 2.38 8 0 8 C0 5.36 0 2.72 0 0 Z " fill="#802424" transform="translate(320,144)"/>
<path d="M0 0 C3.34905453 3.34905453 3.89470285 5.49378854 5 10 C3.35 10 1.7 10 0 10 C0 6.7 0 3.4 0 0 Z " fill="#CA4D40" transform="translate(280,102)"/>
<path d="M0 0 C0.33 0 0.66 0 1 0 C1 2.64 1 5.28 1 8 C-1.31 8 -3.62 8 -6 8 C-6 7.34 -6 6.68 -6 6 C-4.34997172 4.64613064 -2.6825613 3.31321858 -1 2 C-0.67 1.34 -0.34 0.68 0 0 Z " fill="#000000" transform="translate(295,192)"/>
<path d="M0 0 C5 6.66666667 5 6.66666667 5 10 C3.35 10 1.7 10 0 10 C0 6.7 0 3.4 0 0 Z " fill="#B15253" transform="translate(272,86)"/>
<path d="M0 0 C1.65 0 3.3 0 5 0 C4.34 2.64 3.68 5.28 3 8 C2.01 8 1.02 8 0 8 C0 5.36 0 2.72 0 0 Z " fill="#F7493C" transform="translate(184,120)"/>
<path d="M0 0 C3.63 0 7.26 0 11 0 C11 1.32 11 2.64 11 4 C7.1936543 3.32829194 3.64793184 2.27253436 0 1 C0 0.67 0 0.34 0 0 Z " fill="#815E4C" transform="translate(197,328)"/>
<path d="M0 0 C0.99 0.495 0.99 0.495 2 1 C2.4140625 3.28515625 2.4140625 3.28515625 2.625 6.0625 C2.69976562 6.98160156 2.77453125 7.90070313 2.8515625 8.84765625 C2.92503906 9.91306641 2.92503906 9.91306641 3 11 C2.01 11 1.02 11 0 11 C0 7.37 0 3.74 0 0 Z " fill="#BD4D47" transform="translate(208,117)"/>
<path d="M0 0 C1.65 0 3.3 0 5 0 C5 2.97 5 5.94 5 9 C1.89448334 5.89448334 1.18676066 4.10801767 0 0 Z " fill="#000000" transform="translate(219,112)"/>
<path d="M0 0 C2.45823172 3.68734758 3.01242616 6.69699971 4 11 C2.68 11 1.36 11 0 11 C0 7.37 0 3.74 0 0 Z " fill="#C79C92" transform="translate(256,53)"/>
<path d="M0 0 C1.65 0 3.3 0 5 0 C3.8141763 3.37503669 2.72426311 5.64722731 0 8 C0 5.36 0 2.72 0 0 Z " fill="#C71306" transform="translate(280,168)"/>
<path d="M0 0 C3.3 0 6.6 0 10 0 C9.67 1.32 9.34 2.64 9 4 C6.03 3.01 3.06 2.02 0 1 C0 0.67 0 0.34 0 0 Z " fill="#5E463A" transform="translate(174,320)"/>
<path d="M0 0 C0.66 0 1.32 0 2 0 C3.35439668 2.70879335 3.06501451 5.00933268 3 8 C2.01 8 1.02 8 0 8 C0 5.36 0 2.72 0 0 Z " fill="#EA2B25" transform="translate(288,136)"/>
<path d="M0 0 C0.99 0 1.98 0 3 0 C3 3.3 3 6.6 3 10 C0.70366176 6.55549263 0.45983515 4.06187717 0 0 Z " fill="#000000" transform="translate(157,287)"/>
<path d="M0 0 C1.98 0 3.96 0 6 0 C6 3.3 6 6.6 6 10 C5.67 10 5.34 10 5 10 C4.731875 8.906875 4.46375 7.81375 4.1875 6.6875 C3.12336261 3.38307337 2.65345336 2.05039578 0 0 Z " fill="#000000" transform="translate(170,232)"/>
<path d="M0 0 C1.32 0 2.64 0 4 0 C4 2.31 4 4.62 4 7 C1 5 1 5 0.3125 2.375 C0.209375 1.59125 0.10625 0.8075 0 0 Z " fill="#000000" transform="translate(140,240)"/>
<path d="M0 0 C4 4.625 4 4.625 4 8 C2.68 8 1.36 8 0 8 C0 5.36 0 2.72 0 0 Z " fill="#210000" transform="translate(264,72)"/>
<path d="M0 0 C2.64 0 5.28 0 8 0 C8 0.99 8 1.98 8 3 C5.36 3 2.72 3 0 3 C0 2.01 0 1.02 0 0 Z " fill="#EB4C3A" transform="translate(232,152)"/>
<path d="M0 0 C0.66 0 1.32 0 2 0 C2.33 2.64 2.66 5.28 3 8 C2.01 8 1.02 8 0 8 C0 5.36 0 2.72 0 0 Z " fill="#805234" transform="translate(232,448)"/>
<path d="M0 0 C2.31 0 4.62 0 7 0 C7 1.32 7 2.64 7 4 C4.08482708 2.92598892 2.22189824 2.22189824 0 0 Z " fill="#000000" transform="translate(161,264)"/>
<path d="M0 0 C1.77706209 2.66559313 2.87548273 5.0280615 4 8 C2.68 8 1.36 8 0 8 C0 5.36 0 2.72 0 0 Z " fill="#000000" transform="translate(168,192)"/>
<path d="M0 0 C0.66 0 1.32 0 2 0 C2.33 2.31 2.66 4.62 3 7 C2.01 7.33 1.02 7.66 0 8 C0 5.36 0 2.72 0 0 Z " fill="#946D55" transform="translate(224,368)"/>
<path d="M0 0 C2.31 0 4.62 0 7 0 C6.67 1.32 6.34 2.64 6 4 C4.02 3.01 2.04 2.02 0 1 C0 0.67 0 0.34 0 0 Z " fill="#000000" transform="translate(193,200)"/>
</svg>
